<svg xmlns="http://www.w3.org/2000/svg" xmlns:xlink="http://www.w3.org/1999/xlink" width="163" zoomAndPan="magnify" viewBox="0 0 122.25 67.499998" height="90" preserveAspectRatio="xMidYMid meet" version="1.2"><defs><clipPath id="b316fa513c"><path d="M 17 1.429688 L 106 1.429688 L 106 41 L 17 41 Z M 17 1.429688 "/></clipPath><clipPath id="3d584c46dc"><path d="M 2.855469 39 L 106.898438 39 L 106.898438 53.453125 L 2.855469 53.453125 Z M 2.855469 39 "/></clipPath><clipPath id="0d7c64d0bb"><path d="M 21 11.871094 L 72 11.871094 L 72 32 L 21 32 Z M 21 11.871094 "/></clipPath><clipPath id="3566cf96c7"><path d="M 2.273438 12 L 118.875 12 L 118.875 53.132812 L 2.273438 53.132812 Z M 2.273438 12 "/></clipPath></defs><g id="f6b5033a9e"><g clip-rule="nonzero" clip-path="url(#b316fa513c)"><path style=" stroke:none;fill-rule:evenodd;fill:#ff9900;fill-opacity:1;" d="M 86.050781 31.742188 L 101.441406 26.984375 C 103.402344 31.191406 104.730469 35.753906 105.304688 40.550781 C 100.507812 38.878906 95 37.359375 88.964844 36.160156 C 88.113281 34.601562 87.140625 33.125 86.050781 31.742188 Z M 17.007812 40.550781 C 17.578125 35.753906 18.90625 31.191406 20.867188 26.984375 L 36.257812 31.742188 C 35.171875 33.125 34.195312 34.601562 33.347656 36.160156 C 27.308594 37.359375 21.804688 38.878906 17.007812 40.550781 Z M 24.992188 19.910156 C 27.835938 15.925781 31.316406 12.433594 35.28125 9.578125 L 46.035156 23.457031 C 44.296875 24.40625 42.660156 25.515625 41.140625 26.761719 Z M 42.171875 5.503906 C 46.765625 3.324219 51.789062 1.910156 57.082031 1.425781 L 58.003906 19.761719 C 55.886719 19.972656 53.828125 20.394531 51.855469 21 Z M 65.230469 1.429688 C 70.523438 1.910156 75.546875 3.324219 80.136719 5.503906 L 70.457031 21.003906 C 68.480469 20.394531 66.425781 19.976562 64.308594 19.765625 Z M 87.03125 9.578125 C 90.996094 12.433594 94.476562 15.929688 97.316406 19.910156 L 81.171875 26.761719 C 79.648438 25.515625 78.011719 24.40625 76.277344 23.457031 Z M 87.03125 9.578125 "/></g><g clip-rule="nonzero" clip-path="url(#3d584c46dc)"><path style=" stroke:none;fill-rule:evenodd;fill:#82bd04;fill-opacity:1;" d="M 2.886719 53.449219 C 12.90625 46.9375 35.226562 39.777344 61.15625 39.777344 C 87.082031 39.777344 109.40625 46.9375 119.425781 53.449219 C 106.738281 48.277344 85.375 44.363281 61.15625 44.363281 C 36.9375 44.363281 15.574219 48.277344 2.886719 53.449219 Z M 2.886719 53.449219 "/></g><path style=" stroke:none;fill-rule:evenodd;fill:#000000;fill-opacity:1;" d="M 70.851562 25.042969 L 69.09375 27.269531 L 72.523438 27.214844 Z M 70.851562 25.042969 "/><g clip-rule="nonzero" clip-path="url(#0d7c64d0bb)"><path style=" stroke:none;fill-rule:evenodd;fill:#000000;fill-opacity:1;" d="M 45.3125 28.105469 L 58.671875 24.105469 L 58.625 21.269531 L 68.589844 13.621094 L 68.800781 15.527344 L 69.65625 14.863281 L 69.523438 13.089844 L 71.078125 11.871094 L 59.125 14.613281 L 58.847656 15.003906 L 54.960938 16.007812 L 54.9375 13.375 L 54.9375 13.277344 L 54.835938 13.277344 L 50.867188 13.324219 L 49.523438 13.734375 L 49.523438 17.410156 L 38.742188 20.203125 L 30.703125 26.097656 L 30.722656 27.753906 L 21.199219 31.035156 Z M 50.867188 13.515625 L 54.726562 13.476562 L 54.75 16.058594 L 50.867188 17.066406 Z M 58.039062 21.371094 L 58.070312 23.597656 L 31.308594 27.671875 L 31.28125 26.171875 Z M 58.039062 21.371094 "/></g><path style=" stroke:none;fill-rule:evenodd;fill:#000000;fill-opacity:1;" d="M 68.671875 27.125 L 70.585938 24.699219 L 68.671875 22.214844 Z M 68.671875 27.125 "/><path style=" stroke:none;fill-rule:evenodd;fill:#000000;fill-opacity:1;" d="M 73.015625 27.152344 L 73.015625 22.304688 L 71.125 24.699219 Z M 73.015625 27.152344 "/><path style=" stroke:none;fill-rule:evenodd;fill:#000000;fill-opacity:1;" d="M 70.859375 24.355469 L 72.738281 21.980469 L 69.074219 22.039062 Z M 70.859375 24.355469 "/><g clip-rule="nonzero" clip-path="url(#3566cf96c7)"><path style=" stroke:none;fill-rule:evenodd;fill:#000000;fill-opacity:1;" d="M 91.222656 44.289062 L 91.257812 29.140625 L 91.925781 29.527344 L 91.960938 28.382812 L 84.746094 24.007812 L 84.746094 21.605469 L 72.1875 12.507812 L 70.648438 13.824219 L 73.761719 15.945312 L 74.292969 15.84375 L 83.871094 22.777344 L 83.890625 25.035156 L 90.476562 28.824219 L 90.425781 44.164062 C 86.039062 43.535156 81.425781 43.046875 76.621094 42.714844 L 76.496094 31.429688 C 72.757812 31.367188 68.894531 31.527344 65.136719 31.585938 L 65.136719 42.238281 C 64.09375 42.222656 63.050781 42.210938 62.003906 42.210938 C 56.175781 42.210938 50.523438 42.445312 45.109375 42.878906 L 44.824219 29.066406 L 21.121094 31.773438 L 20.828125 46.558594 C 13.371094 48.328125 7.0625 50.558594 2.335938 53.125 C 17.644531 48.871094 39.335938 46.214844 63.390625 46.214844 C 84.632812 46.214844 104.03125 48.285156 118.816406 51.703125 C 111.867188 48.511719 102.351562 45.929688 91.222656 44.289062 Z M 66.914062 33.210938 L 74.722656 33.019531 L 74.871094 42.601562 C 72.277344 42.445312 69.632812 42.335938 66.941406 42.273438 Z M 37.53125 35.878906 L 39.269531 35.847656 L 39.269531 40.183594 L 37.53125 40.214844 Z M 29.96875 36.050781 L 34.21875 35.570312 L 34.21875 44.082031 C 32.773438 44.285156 31.355469 44.503906 29.96875 44.734375 Z M 29.96875 36.050781 "/></g><path style=" stroke:none;fill-rule:evenodd;fill:#000000;fill-opacity:1;" d="M 52.335938 31.734375 L 52.335938 38.09375 L 52.75 38.054688 L 57.078125 37.644531 L 57.421875 37.613281 L 57.421875 31.253906 L 57.003906 31.292969 L 52.679688 31.703125 Z M 53.089844 32.40625 L 56.660156 32.074219 L 56.660156 36.949219 L 53.089844 37.28125 Z M 53.089844 32.40625 "/><path style=" stroke:none;fill-rule:evenodd;fill:#000000;fill-opacity:1;" d="M 85.386719 39.28125 L 85.386719 32.921875 L 85.042969 32.890625 L 80.714844 32.480469 L 80.296875 32.441406 L 80.296875 38.800781 L 80.640625 38.832031 L 84.96875 39.242188 Z M 84.628906 38.460938 L 81.058594 38.132812 L 81.058594 33.261719 L 84.628906 33.59375 Z M 84.628906 38.460938 "/><path style=" stroke:none;fill-rule:evenodd;fill:#000000;fill-opacity:1;" d="M 67.277344 21.226562 L 66.824219 29.023438 L 73.609375 28.339844 L 67.679688 28.289062 Z M 67.277344 21.226562 "/><g style="fill:#000000;fill-opacity:1;"><g transform="translate(9.869031, 65.248075)"><path style="stroke:none" d="M 5.90625 -3.390625 C 6.007812 -3.421875 6.101562 -3.410156 6.1875 -3.359375 C 6.269531 -3.316406 6.328125 -3.238281 6.359375 -3.125 L 6.625 -2.015625 C 6.65625 -1.910156 6.640625 -1.816406 6.578125 -1.734375 C 6.535156 -1.648438 6.460938 -1.59375 6.359375 -1.5625 L 1.46875 -0.359375 C 1.363281 -0.335938 1.269531 -0.351562 1.1875 -0.40625 C 1.101562 -0.445312 1.046875 -0.519531 1.015625 -0.625 L -1.078125 -9.125 C -1.097656 -9.226562 -1.082031 -9.328125 -1.03125 -9.421875 C -0.988281 -9.503906 -0.914062 -9.554688 -0.8125 -9.578125 L 0.3125 -9.859375 C 0.414062 -9.878906 0.515625 -9.867188 0.609375 -9.828125 C 0.691406 -9.773438 0.742188 -9.695312 0.765625 -9.59375 L 2.40625 -2.9375 C 2.4375 -2.832031 2.488281 -2.75 2.5625 -2.6875 C 2.65625 -2.632812 2.753906 -2.617188 2.859375 -2.640625 Z M 5.90625 -3.390625 "/></g></g><g style="fill:#000000;fill-opacity:1;"><g transform="translate(19.493564, 62.921777)"><path style="stroke:none" d="M 5.609375 -9.234375 C 6.023438 -8.859375 6.375 -8.414062 6.65625 -7.90625 C 6.9375 -7.382812 7.132812 -6.820312 7.25 -6.21875 C 7.363281 -5.613281 7.382812 -5.019531 7.3125 -4.4375 C 7.238281 -3.851562 7.078125 -3.3125 6.828125 -2.8125 C 6.554688 -2.269531 6.207031 -1.828125 5.78125 -1.484375 C 5.351562 -1.148438 4.875 -0.929688 4.34375 -0.828125 C 3.820312 -0.722656 3.300781 -0.753906 2.78125 -0.921875 C 2.25 -1.078125 1.753906 -1.351562 1.296875 -1.75 C 0.890625 -2.125 0.546875 -2.570312 0.265625 -3.09375 C -0.015625 -3.613281 -0.210938 -4.175781 -0.328125 -4.78125 C -0.441406 -5.382812 -0.460938 -5.976562 -0.390625 -6.5625 C -0.316406 -7.132812 -0.160156 -7.671875 0.078125 -8.171875 C 0.347656 -8.710938 0.703125 -9.15625 1.140625 -9.5 C 1.566406 -9.832031 2.039062 -10.050781 2.5625 -10.15625 C 3.09375 -10.257812 3.617188 -10.226562 4.140625 -10.0625 C 4.660156 -9.90625 5.148438 -9.628906 5.609375 -9.234375 Z M 3.984375 -2.6875 C 4.253906 -2.738281 4.492188 -2.863281 4.703125 -3.0625 C 4.898438 -3.25 5.054688 -3.492188 5.171875 -3.796875 C 5.304688 -4.066406 5.390625 -4.382812 5.421875 -4.75 C 5.460938 -5.09375 5.445312 -5.460938 5.375 -5.859375 C 5.300781 -6.234375 5.179688 -6.582031 5.015625 -6.90625 C 4.847656 -7.226562 4.648438 -7.5 4.421875 -7.71875 C 4.203125 -7.9375 3.96875 -8.101562 3.71875 -8.21875 C 3.457031 -8.320312 3.191406 -8.347656 2.921875 -8.296875 C 2.660156 -8.242188 2.429688 -8.125 2.234375 -7.9375 C 2.015625 -7.738281 1.847656 -7.492188 1.734375 -7.203125 C 1.609375 -6.910156 1.523438 -6.582031 1.484375 -6.21875 C 1.441406 -5.875 1.457031 -5.515625 1.53125 -5.140625 C 1.601562 -4.742188 1.722656 -4.382812 1.890625 -4.0625 C 2.066406 -3.738281 2.265625 -3.476562 2.484375 -3.28125 C 2.703125 -3.050781 2.945312 -2.882812 3.21875 -2.78125 C 3.46875 -2.664062 3.722656 -2.632812 3.984375 -2.6875 Z M 3.984375 -2.6875 "/></g></g><g style="fill:#000000;fill-opacity:1;"><g transform="translate(30.552257, 60.888477)"><path style="stroke:none" d="M 4 -8.21875 C 3.1875 -8.113281 2.585938 -7.75 2.203125 -7.125 C 2.023438 -6.832031 1.90625 -6.515625 1.84375 -6.171875 C 1.769531 -5.796875 1.757812 -5.414062 1.8125 -5.03125 C 1.851562 -4.757812 1.9375 -4.472656 2.0625 -4.171875 C 2.164062 -3.847656 2.335938 -3.554688 2.578125 -3.296875 C 2.816406 -3.035156 3.113281 -2.832031 3.46875 -2.6875 C 3.832031 -2.53125 4.265625 -2.484375 4.765625 -2.546875 L 5.859375 -2.703125 C 6.035156 -2.722656 6.191406 -2.679688 6.328125 -2.578125 C 6.472656 -2.460938 6.554688 -2.3125 6.578125 -2.125 L 6.65625 -1.5625 C 6.6875 -1.375 6.644531 -1.210938 6.53125 -1.078125 C 6.425781 -0.929688 6.285156 -0.847656 6.109375 -0.828125 L 5.015625 -0.671875 C 4.285156 -0.578125 3.628906 -0.628906 3.046875 -0.828125 C 2.453125 -1.035156 1.9375 -1.328125 1.5 -1.703125 C 1.0625 -2.097656 0.710938 -2.5625 0.453125 -3.09375 C 0.191406 -3.632812 0.0195312 -4.195312 -0.0625 -4.78125 C -0.144531 -5.394531 -0.128906 -5.984375 -0.015625 -6.546875 C 0.0859375 -7.128906 0.296875 -7.648438 0.609375 -8.109375 C 0.953125 -8.671875 1.390625 -9.117188 1.921875 -9.453125 C 2.460938 -9.796875 3.070312 -10.007812 3.75 -10.09375 L 4.84375 -10.25 C 5.019531 -10.269531 5.175781 -10.226562 5.3125 -10.125 C 5.457031 -10.007812 5.539062 -9.859375 5.5625 -9.671875 L 5.640625 -9.09375 C 5.671875 -8.90625 5.628906 -8.75 5.515625 -8.625 C 5.410156 -8.476562 5.269531 -8.394531 5.09375 -8.375 Z M 4 -8.21875 "/></g></g><g style="fill:#000000;fill-opacity:1;"><g transform="translate(40.833544, 59.555831)"><path style="stroke:none" d="M 7.96875 -1.078125 C 8.007812 -0.972656 8 -0.875 7.9375 -0.78125 C 7.875 -0.675781 7.785156 -0.625 7.671875 -0.625 L 6.453125 -0.515625 C 6.367188 -0.515625 6.296875 -0.535156 6.234375 -0.578125 C 6.160156 -0.617188 6.109375 -0.675781 6.078125 -0.75 L 5.53125 -2.171875 C 5.507812 -2.253906 5.460938 -2.316406 5.390625 -2.359375 C 5.316406 -2.398438 5.238281 -2.414062 5.15625 -2.40625 L 3.109375 -2.25 C 3.023438 -2.238281 2.953125 -2.207031 2.890625 -2.15625 C 2.835938 -2.101562 2.796875 -2.035156 2.765625 -1.953125 L 2.484375 -0.46875 C 2.460938 -0.382812 2.425781 -0.316406 2.375 -0.265625 C 2.3125 -0.210938 2.238281 -0.179688 2.15625 -0.171875 L 0.90625 -0.078125 C 0.800781 -0.0664062 0.707031 -0.101562 0.625 -0.1875 C 0.550781 -0.269531 0.523438 -0.367188 0.546875 -0.484375 L 2.375 -9.453125 C 2.394531 -9.535156 2.4375 -9.601562 2.5 -9.65625 C 2.550781 -9.707031 2.617188 -9.738281 2.703125 -9.75 L 4.359375 -9.875 C 4.441406 -9.882812 4.519531 -9.867188 4.59375 -9.828125 C 4.65625 -9.785156 4.703125 -9.722656 4.734375 -9.640625 Z M 4.609375 -4.25 C 4.640625 -4.257812 4.664062 -4.273438 4.6875 -4.296875 C 4.707031 -4.328125 4.707031 -4.359375 4.6875 -4.390625 L 3.890625 -6.515625 C 3.878906 -6.566406 3.847656 -6.585938 3.796875 -6.578125 C 3.742188 -6.578125 3.710938 -6.550781 3.703125 -6.5 L 3.234375 -4.265625 C 3.242188 -4.234375 3.257812 -4.207031 3.28125 -4.1875 C 3.300781 -4.164062 3.328125 -4.15625 3.359375 -4.15625 Z M 4.609375 -4.25 "/></g></g><g style="fill:#000000;fill-opacity:1;"><g transform="translate(51.827407, 58.747877)"><path style="stroke:none" d="M 6.5 -2.078125 C 6.613281 -2.078125 6.703125 -2.039062 6.765625 -1.96875 C 6.835938 -1.90625 6.875 -1.816406 6.875 -1.703125 L 6.90625 -0.5625 C 6.914062 -0.445312 6.882812 -0.359375 6.8125 -0.296875 C 6.75 -0.222656 6.660156 -0.1875 6.546875 -0.1875 L 1.515625 -0.046875 C 1.410156 -0.0351562 1.320312 -0.0664062 1.25 -0.140625 C 1.175781 -0.203125 1.132812 -0.289062 1.125 -0.40625 L 0.890625 -9.15625 C 0.890625 -9.257812 0.921875 -9.351562 0.984375 -9.4375 C 1.054688 -9.5 1.144531 -9.535156 1.25 -9.546875 L 2.40625 -9.578125 C 2.507812 -9.578125 2.597656 -9.546875 2.671875 -9.484375 C 2.753906 -9.398438 2.796875 -9.304688 2.796875 -9.203125 L 2.984375 -2.34375 C 2.984375 -2.238281 3.015625 -2.15625 3.078125 -2.09375 C 3.160156 -2.019531 3.253906 -1.984375 3.359375 -1.984375 Z M 6.5 -2.078125 "/></g></g><g style="fill:#000000;fill-opacity:1;"><g transform="translate(61.767411, 58.547757)"><path style="stroke:none" d=""/></g></g><g style="fill:#000000;fill-opacity:1;"><g transform="translate(69.938157, 58.728981)"><path style="stroke:none" d="M 7.21875 -9.0625 C 7.300781 -9.0625 7.367188 -9.03125 7.421875 -8.96875 C 7.472656 -8.90625 7.492188 -8.828125 7.484375 -8.734375 L 7.40625 -7.46875 C 7.40625 -7.375 7.375 -7.300781 7.3125 -7.25 C 7.25 -7.195312 7.175781 -7.171875 7.09375 -7.171875 L 3.828125 -7.375 C 3.742188 -7.382812 3.671875 -7.359375 3.609375 -7.296875 C 3.546875 -7.253906 3.515625 -7.1875 3.515625 -7.09375 L 3.421875 -5.796875 C 3.421875 -5.710938 3.445312 -5.632812 3.5 -5.5625 C 3.550781 -5.507812 3.617188 -5.476562 3.703125 -5.46875 L 4.984375 -5.390625 C 5.078125 -5.390625 5.15625 -5.351562 5.21875 -5.28125 C 5.269531 -5.21875 5.296875 -5.144531 5.296875 -5.0625 L 5.21875 -3.78125 C 5.207031 -3.695312 5.171875 -3.625 5.109375 -3.5625 C 5.035156 -3.53125 4.953125 -3.515625 4.859375 -3.515625 L 3.578125 -3.59375 C 3.492188 -3.601562 3.425781 -3.578125 3.375 -3.515625 C 3.3125 -3.460938 3.273438 -3.390625 3.265625 -3.296875 L 3.0625 -0.125 C 3.0625 -0.03125 3.023438 0.0390625 2.953125 0.09375 C 2.898438 0.15625 2.828125 0.179688 2.734375 0.171875 L 1.453125 0.09375 C 1.359375 0.0820312 1.285156 0.046875 1.234375 -0.015625 C 1.179688 -0.0664062 1.15625 -0.140625 1.15625 -0.234375 L 1.71875 -9.09375 C 1.726562 -9.1875 1.765625 -9.265625 1.828125 -9.328125 C 1.890625 -9.378906 1.96875 -9.398438 2.0625 -9.390625 Z M 7.21875 -9.0625 "/></g></g><g style="fill:#000000;fill-opacity:1;"><g transform="translate(79.819785, 59.405177)"><path style="stroke:none" d="M 8.03125 0.5 C 8.050781 0.613281 8.023438 0.707031 7.953125 0.78125 C 7.867188 0.863281 7.769531 0.898438 7.65625 0.890625 L 6.421875 0.75 C 6.335938 0.738281 6.269531 0.703125 6.21875 0.640625 C 6.15625 0.597656 6.113281 0.53125 6.09375 0.4375 L 5.859375 -1.046875 C 5.847656 -1.128906 5.8125 -1.195312 5.75 -1.25 C 5.6875 -1.3125 5.613281 -1.34375 5.53125 -1.34375 L 3.5 -1.59375 C 3.414062 -1.601562 3.335938 -1.582031 3.265625 -1.53125 C 3.203125 -1.5 3.148438 -1.441406 3.109375 -1.359375 L 2.53125 0.03125 C 2.5 0.101562 2.445312 0.160156 2.375 0.203125 C 2.300781 0.242188 2.222656 0.257812 2.140625 0.25 L 0.90625 0.109375 C 0.800781 0.0976562 0.71875 0.0390625 0.65625 -0.0625 C 0.59375 -0.15625 0.582031 -0.257812 0.625 -0.375 L 4.171875 -8.8125 C 4.210938 -8.882812 4.269531 -8.941406 4.34375 -8.984375 C 4.40625 -9.023438 4.472656 -9.039062 4.546875 -9.03125 L 6.203125 -8.84375 C 6.285156 -8.832031 6.359375 -8.796875 6.421875 -8.734375 C 6.472656 -8.691406 6.503906 -8.625 6.515625 -8.53125 Z M 5.359375 -3.265625 C 5.390625 -3.265625 5.414062 -3.273438 5.4375 -3.296875 C 5.457031 -3.328125 5.46875 -3.359375 5.46875 -3.390625 L 5.09375 -5.609375 C 5.082031 -5.660156 5.050781 -5.691406 5 -5.703125 C 4.945312 -5.710938 4.914062 -5.691406 4.90625 -5.640625 L 4.015625 -3.546875 C 4.003906 -3.515625 4.007812 -3.484375 4.03125 -3.453125 C 4.050781 -3.429688 4.078125 -3.421875 4.109375 -3.421875 Z M 5.359375 -3.265625 "/></g></g><g style="fill:#000000;fill-opacity:1;"><g transform="translate(90.74865, 60.747464)"><path style="stroke:none" d="M 7.09375 0.5625 C 7.125 0.644531 7.132812 0.71875 7.125 0.78125 C 7.101562 0.863281 7.070312 0.9375 7.03125 1 C 6.988281 1.050781 6.9375 1.09375 6.875 1.125 C 6.800781 1.15625 6.722656 1.160156 6.640625 1.140625 L 5.4375 0.9375 C 5.269531 0.90625 5.15625 0.816406 5.09375 0.671875 L 4.15625 -1.625 C 4.101562 -1.78125 4 -1.867188 3.84375 -1.890625 C 3.726562 -1.910156 3.625 -1.882812 3.53125 -1.8125 C 3.4375 -1.75 3.378906 -1.65625 3.359375 -1.53125 L 3.078125 0.078125 C 3.054688 0.203125 2.992188 0.300781 2.890625 0.375 C 2.796875 0.4375 2.695312 0.460938 2.59375 0.453125 L 1.5625 0.265625 C 1.4375 0.242188 1.335938 0.1875 1.265625 0.09375 C 1.203125 -0.0078125 1.179688 -0.125 1.203125 -0.25 L 2.671875 -8.75 C 2.691406 -8.863281 2.75 -8.953125 2.84375 -9.015625 C 2.945312 -9.085938 3.0625 -9.113281 3.1875 -9.09375 L 5.59375 -8.671875 C 6.101562 -8.585938 6.546875 -8.410156 6.921875 -8.140625 C 7.304688 -7.878906 7.617188 -7.539062 7.859375 -7.125 C 8.066406 -6.769531 8.203125 -6.378906 8.265625 -5.953125 C 8.328125 -5.535156 8.316406 -5.101562 8.234375 -4.65625 C 8.160156 -4.21875 8.03125 -3.816406 7.84375 -3.453125 C 7.632812 -3.078125 7.375 -2.757812 7.0625 -2.5 C 6.882812 -2.332031 6.675781 -2.191406 6.4375 -2.078125 C 6.34375 -2.023438 6.273438 -1.941406 6.234375 -1.828125 C 6.203125 -1.734375 6.207031 -1.640625 6.25 -1.546875 Z M 5.8125 -3.921875 C 5.957031 -4.046875 6.082031 -4.203125 6.1875 -4.390625 C 6.28125 -4.566406 6.34375 -4.765625 6.375 -4.984375 C 6.382812 -5.023438 6.394531 -5.132812 6.40625 -5.3125 C 6.425781 -5.476562 6.40625 -5.664062 6.34375 -5.875 C 6.28125 -6.070312 6.171875 -6.257812 6.015625 -6.4375 C 5.859375 -6.625 5.609375 -6.75 5.265625 -6.8125 L 4.71875 -6.90625 C 4.601562 -6.925781 4.5 -6.898438 4.40625 -6.828125 C 4.300781 -6.765625 4.238281 -6.675781 4.21875 -6.5625 L 3.828125 -4.234375 C 3.804688 -4.128906 3.828125 -4.023438 3.890625 -3.921875 C 3.960938 -3.828125 4.054688 -3.769531 4.171875 -3.75 L 4.71875 -3.65625 C 5.175781 -3.582031 5.539062 -3.671875 5.8125 -3.921875 Z M 5.8125 -3.921875 "/></g></g><g style="fill:#000000;fill-opacity:1;"><g transform="translate(101.419728, 62.622162)"><path style="stroke:none" d="M 11.53125 -7.03125 C 11.664062 -7 11.769531 -6.925781 11.84375 -6.8125 C 11.914062 -6.695312 11.9375 -6.570312 11.90625 -6.4375 L 9.9375 1.859375 C 9.90625 1.984375 9.832031 2.082031 9.71875 2.15625 C 9.601562 2.226562 9.476562 2.25 9.34375 2.21875 L 8.453125 2 C 8.316406 1.96875 8.21875 1.894531 8.15625 1.78125 C 8.082031 1.664062 8.0625 1.546875 8.09375 1.421875 L 9.4375 -4.265625 C 9.457031 -4.328125 9.460938 -4.378906 9.453125 -4.421875 C 9.429688 -4.472656 9.394531 -4.507812 9.34375 -4.53125 C 9.300781 -4.5625 9.253906 -4.582031 9.203125 -4.59375 C 9.148438 -4.59375 9.101562 -4.578125 9.0625 -4.546875 L 6.90625 -3.34375 C 6.789062 -3.269531 6.671875 -3.25 6.546875 -3.28125 C 6.429688 -3.3125 6.332031 -3.382812 6.25 -3.5 L 4.890625 -5.546875 C 4.847656 -5.597656 4.804688 -5.632812 4.765625 -5.65625 C 4.710938 -5.664062 4.660156 -5.664062 4.609375 -5.65625 C 4.578125 -5.65625 4.546875 -5.632812 4.515625 -5.59375 C 4.472656 -5.5625 4.441406 -5.515625 4.421875 -5.453125 L 3.078125 0.234375 C 3.046875 0.359375 2.96875 0.457031 2.84375 0.53125 C 2.726562 0.601562 2.609375 0.625 2.484375 0.59375 L 1.59375 0.375 C 1.46875 0.34375 1.367188 0.269531 1.296875 0.15625 C 1.210938 0.0390625 1.1875 -0.078125 1.21875 -0.203125 L 3.1875 -8.5 C 3.21875 -8.632812 3.296875 -8.738281 3.421875 -8.8125 C 3.535156 -8.882812 3.65625 -8.90625 3.78125 -8.875 L 4.71875 -8.65625 C 5.007812 -8.582031 5.234375 -8.421875 5.390625 -8.171875 L 6.984375 -5.859375 C 7.015625 -5.804688 7.066406 -5.769531 7.140625 -5.75 C 7.210938 -5.726562 7.273438 -5.734375 7.328125 -5.765625 L 9.78125 -7.140625 C 10.039062 -7.285156 10.3125 -7.320312 10.59375 -7.25 Z M 11.53125 -7.03125 "/></g></g></g></svg>