<svg xmlns="http://www.w3.org/2000/svg" xmlns:xlink="http://www.w3.org/1999/xlink" width="163" zoomAndPan="magnify" viewBox="0 0 122.25 67.499998" height="90" preserveAspectRatio="xMidYMid meet" version="1.2"><defs><clipPath id="b15fcc0bae"><path d="M 17 1.429688 L 106 1.429688 L 106 41 L 17 41 Z M 17 1.429688 "/></clipPath><clipPath id="8e739f06a3"><path d="M 2.855469 39 L 106.898438 39 L 106.898438 53.453125 L 2.855469 53.453125 Z M 2.855469 39 "/></clipPath><clipPath id="edab08ee77"><path d="M 21 11.871094 L 72 11.871094 L 72 32 L 21 32 Z M 21 11.871094 "/></clipPath><clipPath id="4ed5b6f894"><path d="M 2.273438 12 L 118.875 12 L 118.875 53.132812 L 2.273438 53.132812 Z M 2.273438 12 "/></clipPath></defs><g id="5131369c9d"><g clip-rule="nonzero" clip-path="url(#b15fcc0bae)"><path style=" stroke:none;fill-rule:evenodd;fill:#ff9900;fill-opacity:1;" d="M 86.050781 31.742188 L 101.441406 26.984375 C 103.402344 31.191406 104.730469 35.753906 105.304688 40.550781 C 100.507812 38.878906 95 37.359375 88.964844 36.160156 C 88.113281 34.601562 87.140625 33.125 86.050781 31.742188 Z M 17.007812 40.550781 C 17.578125 35.753906 18.90625 31.191406 20.867188 26.984375 L 36.257812 31.742188 C 35.171875 33.125 34.195312 34.601562 33.347656 36.160156 C 27.308594 37.359375 21.804688 38.878906 17.007812 40.550781 Z M 24.992188 19.910156 C 27.835938 15.925781 31.316406 12.433594 35.28125 9.578125 L 46.035156 23.457031 C 44.296875 24.40625 42.660156 25.515625 41.140625 26.761719 Z M 42.171875 5.503906 C 46.765625 3.324219 51.789062 1.910156 57.082031 1.425781 L 58.003906 19.761719 C 55.886719 19.972656 53.828125 20.394531 51.855469 21 Z M 65.230469 1.429688 C 70.523438 1.910156 75.546875 3.324219 80.136719 5.503906 L 70.457031 21.003906 C 68.480469 20.394531 66.425781 19.976562 64.308594 19.765625 Z M 87.03125 9.578125 C 90.996094 12.433594 94.476562 15.929688 97.316406 19.910156 L 81.171875 26.761719 C 79.648438 25.515625 78.011719 24.40625 76.277344 23.457031 Z M 87.03125 9.578125 "/></g><g clip-rule="nonzero" clip-path="url(#8e739f06a3)"><path style=" stroke:none;fill-rule:evenodd;fill:#82bd04;fill-opacity:1;" d="M 2.886719 53.449219 C 12.90625 46.9375 35.226562 39.777344 61.15625 39.777344 C 87.082031 39.777344 109.40625 46.9375 119.425781 53.449219 C 106.738281 48.277344 85.375 44.363281 61.15625 44.363281 C 36.9375 44.363281 15.574219 48.277344 2.886719 53.449219 Z M 2.886719 53.449219 "/></g><path style=" stroke:none;fill-rule:evenodd;fill:#000000;fill-opacity:1;" d="M 70.851562 25.042969 L 69.09375 27.269531 L 72.523438 27.214844 Z M 70.851562 25.042969 "/><g clip-rule="nonzero" clip-path="url(#edab08ee77)"><path style=" stroke:none;fill-rule:evenodd;fill:#000000;fill-opacity:1;" d="M 45.3125 28.105469 L 58.671875 24.105469 L 58.625 21.269531 L 68.589844 13.621094 L 68.800781 15.527344 L 69.65625 14.863281 L 69.523438 13.089844 L 71.078125 11.871094 L 59.125 14.613281 L 58.847656 15.003906 L 54.960938 16.007812 L 54.9375 13.375 L 54.9375 13.277344 L 54.835938 13.277344 L 50.867188 13.324219 L 49.523438 13.734375 L 49.523438 17.410156 L 38.742188 20.203125 L 30.703125 26.097656 L 30.722656 27.753906 L 21.199219 31.035156 Z M 50.867188 13.515625 L 54.726562 13.476562 L 54.75 16.058594 L 50.867188 17.066406 Z M 58.039062 21.371094 L 58.070312 23.597656 L 31.308594 27.671875 L 31.28125 26.171875 Z M 58.039062 21.371094 "/></g><path style=" stroke:none;fill-rule:evenodd;fill:#000000;fill-opacity:1;" d="M 68.671875 27.125 L 70.585938 24.699219 L 68.671875 22.214844 Z M 68.671875 27.125 "/><path style=" stroke:none;fill-rule:evenodd;fill:#000000;fill-opacity:1;" d="M 73.015625 27.152344 L 73.015625 22.304688 L 71.125 24.699219 Z M 73.015625 27.152344 "/><path style=" stroke:none;fill-rule:evenodd;fill:#000000;fill-opacity:1;" d="M 70.859375 24.355469 L 72.738281 21.980469 L 69.074219 22.039062 Z M 70.859375 24.355469 "/><g clip-rule="nonzero" clip-path="url(#4ed5b6f894)"><path style=" stroke:none;fill-rule:evenodd;fill:#000000;fill-opacity:1;" d="M 91.222656 44.289062 L 91.257812 29.140625 L 91.925781 29.527344 L 91.960938 28.382812 L 84.746094 24.007812 L 84.746094 21.605469 L 72.1875 12.507812 L 70.648438 13.824219 L 73.761719 15.945312 L 74.292969 15.84375 L 83.871094 22.777344 L 83.890625 25.035156 L 90.476562 28.824219 L 90.425781 44.164062 C 86.039062 43.535156 81.425781 43.046875 76.621094 42.714844 L 76.496094 31.429688 C 72.757812 31.367188 68.894531 31.527344 65.136719 31.585938 L 65.136719 42.238281 C 64.09375 42.222656 63.050781 42.210938 62.003906 42.210938 C 56.175781 42.210938 50.523438 42.445312 45.109375 42.878906 L 44.824219 29.066406 L 21.121094 31.773438 L 20.828125 46.558594 C 13.371094 48.328125 7.0625 50.558594 2.335938 53.125 C 17.644531 48.871094 39.335938 46.214844 63.390625 46.214844 C 84.632812 46.214844 104.03125 48.285156 118.816406 51.703125 C 111.867188 48.511719 102.351562 45.929688 91.222656 44.289062 Z M 66.914062 33.210938 L 74.722656 33.019531 L 74.871094 42.601562 C 72.277344 42.445312 69.632812 42.335938 66.941406 42.273438 Z M 37.53125 35.878906 L 39.269531 35.847656 L 39.269531 40.183594 L 37.53125 40.214844 Z M 29.96875 36.050781 L 34.21875 35.570312 L 34.21875 44.082031 C 32.773438 44.285156 31.355469 44.503906 29.96875 44.734375 Z M 29.96875 36.050781 "/></g><path style=" stroke:none;fill-rule:evenodd;fill:#000000;fill-opacity:1;" d="M 52.335938 31.734375 L 52.335938 38.09375 L 52.75 38.054688 L 57.078125 37.644531 L 57.421875 37.613281 L 57.421875 31.253906 L 57.003906 31.292969 L 52.679688 31.703125 Z M 53.089844 32.40625 L 56.660156 32.074219 L 56.660156 36.949219 L 53.089844 37.28125 Z M 53.089844 32.40625 "/><path style=" stroke:none;fill-rule:evenodd;fill:#000000;fill-opacity:1;" d="M 85.386719 39.28125 L 85.386719 32.921875 L 85.042969 32.890625 L 80.714844 32.480469 L 80.296875 32.441406 L 80.296875 38.800781 L 80.640625 38.832031 L 84.96875 39.242188 Z M 84.628906 38.460938 L 81.058594 38.132812 L 81.058594 33.261719 L 84.628906 33.59375 Z M 84.628906 38.460938 "/><path style=" stroke:none;fill-rule:evenodd;fill:#000000;fill-opacity:1;" d="M 67.277344 21.226562 L 66.824219 29.023438 L 73.609375 28.339844 L 67.679688 28.289062 Z M 67.277344 21.226562 "/><g style="fill:#000000;fill-opacity:1;"><g transform="translate(10.570244, 63.434298)"><path style="stroke:none" d="M 1.953125 -0.328125 C 1.597656 -0.265625 1.296875 -0.3125 1.046875 -0.46875 C 0.804688 -0.632812 0.65625 -0.894531 0.59375 -1.25 L -0.5625 -7.625 C -0.476562 -7.664062 -0.335938 -7.71875 -0.140625 -7.78125 C 0.046875 -7.851562 0.226562 -7.90625 0.40625 -7.9375 C 0.601562 -7.96875 0.773438 -7.976562 0.921875 -7.96875 C 1.066406 -7.96875 1.195312 -7.941406 1.3125 -7.890625 C 1.425781 -7.835938 1.519531 -7.75 1.59375 -7.625 C 1.664062 -7.507812 1.722656 -7.34375 1.765625 -7.125 L 2.65625 -2.25 L 5.484375 -2.765625 C 5.554688 -2.679688 5.628906 -2.566406 5.703125 -2.421875 C 5.785156 -2.273438 5.84375 -2.117188 5.875 -1.953125 C 5.9375 -1.628906 5.90625 -1.382812 5.78125 -1.21875 C 5.664062 -1.0625 5.488281 -0.960938 5.25 -0.921875 Z M 1.953125 -0.328125 "/></g></g><g style="fill:#000000;fill-opacity:1;"><g transform="translate(20.213817, 61.720423)"><path style="stroke:none" d="M -0.09375 -3.84375 C -0.175781 -4.488281 -0.15625 -5.070312 -0.03125 -5.59375 C 0.09375 -6.113281 0.3125 -6.566406 0.625 -6.953125 C 0.9375 -7.335938 1.316406 -7.648438 1.765625 -7.890625 C 2.222656 -8.140625 2.726562 -8.300781 3.28125 -8.375 C 3.84375 -8.445312 4.367188 -8.425781 4.859375 -8.3125 C 5.359375 -8.207031 5.804688 -8.015625 6.203125 -7.734375 C 6.609375 -7.453125 6.945312 -7.078125 7.21875 -6.609375 C 7.5 -6.140625 7.679688 -5.582031 7.765625 -4.9375 C 7.859375 -4.28125 7.835938 -3.6875 7.703125 -3.15625 C 7.578125 -2.632812 7.363281 -2.179688 7.0625 -1.796875 C 6.757812 -1.410156 6.378906 -1.097656 5.921875 -0.859375 C 5.460938 -0.617188 4.953125 -0.460938 4.390625 -0.390625 C 3.828125 -0.304688 3.289062 -0.320312 2.78125 -0.4375 C 2.28125 -0.550781 1.832031 -0.75 1.4375 -1.03125 C 1.039062 -1.320312 0.707031 -1.703125 0.4375 -2.171875 C 0.175781 -2.640625 0 -3.195312 -0.09375 -3.84375 Z M 2.140625 -4.15625 C 2.242188 -3.394531 2.472656 -2.847656 2.828125 -2.515625 C 3.191406 -2.191406 3.628906 -2.066406 4.140625 -2.140625 C 4.660156 -2.210938 5.046875 -2.453125 5.296875 -2.859375 C 5.554688 -3.273438 5.632812 -3.863281 5.53125 -4.625 C 5.425781 -5.363281 5.195312 -5.898438 4.84375 -6.234375 C 4.488281 -6.566406 4.050781 -6.695312 3.53125 -6.625 C 3.019531 -6.550781 2.632812 -6.304688 2.375 -5.890625 C 2.113281 -5.484375 2.035156 -4.90625 2.140625 -4.15625 Z M 2.140625 -4.15625 "/></g></g><g style="fill:#000000;fill-opacity:1;"><g transform="translate(32.280542, 60.125823)"><path style="stroke:none" d="M 4.09375 -6.5 C 3.445312 -6.4375 2.972656 -6.191406 2.671875 -5.765625 C 2.367188 -5.347656 2.253906 -4.78125 2.328125 -4.0625 C 2.390625 -3.332031 2.628906 -2.789062 3.046875 -2.4375 C 3.472656 -2.09375 4.007812 -1.945312 4.65625 -2 C 4.976562 -2.039062 5.253906 -2.113281 5.484375 -2.21875 C 5.710938 -2.320312 5.929688 -2.445312 6.140625 -2.59375 C 6.296875 -2.476562 6.421875 -2.347656 6.515625 -2.203125 C 6.609375 -2.054688 6.664062 -1.875 6.6875 -1.65625 C 6.71875 -1.3125 6.550781 -1.003906 6.1875 -0.734375 C 5.832031 -0.460938 5.269531 -0.289062 4.5 -0.21875 C 3.9375 -0.15625 3.398438 -0.175781 2.890625 -0.28125 C 2.390625 -0.394531 1.941406 -0.597656 1.546875 -0.890625 C 1.148438 -1.191406 0.820312 -1.582031 0.5625 -2.0625 C 0.300781 -2.550781 0.140625 -3.144531 0.078125 -3.84375 C 0.015625 -4.5 0.0625 -5.078125 0.21875 -5.578125 C 0.375 -6.085938 0.609375 -6.53125 0.921875 -6.90625 C 1.242188 -7.289062 1.632812 -7.59375 2.09375 -7.8125 C 2.550781 -8.039062 3.050781 -8.179688 3.59375 -8.234375 C 4.351562 -8.304688 4.957031 -8.238281 5.40625 -8.03125 C 5.851562 -7.820312 6.09375 -7.519531 6.125 -7.125 C 6.144531 -6.90625 6.109375 -6.710938 6.015625 -6.546875 C 5.929688 -6.378906 5.820312 -6.238281 5.6875 -6.125 C 5.457031 -6.238281 5.210938 -6.335938 4.953125 -6.421875 C 4.703125 -6.503906 4.414062 -6.53125 4.09375 -6.5 Z M 4.09375 -6.5 "/></g></g><g style="fill:#000000;fill-opacity:1;"><g transform="translate(42.761189, 59.180746)"><path style="stroke:none" d="M 2.03125 -7.5 C 2.164062 -7.582031 2.375 -7.671875 2.65625 -7.765625 C 2.945312 -7.859375 3.238281 -7.914062 3.53125 -7.9375 C 3.945312 -7.957031 4.316406 -7.910156 4.640625 -7.796875 C 4.960938 -7.691406 5.179688 -7.515625 5.296875 -7.265625 C 5.460938 -6.847656 5.648438 -6.351562 5.859375 -5.78125 C 6.066406 -5.21875 6.273438 -4.632812 6.484375 -4.03125 C 6.691406 -3.425781 6.894531 -2.828125 7.09375 -2.234375 C 7.300781 -1.648438 7.476562 -1.132812 7.625 -0.6875 C 7.53125 -0.5625 7.382812 -0.457031 7.1875 -0.375 C 6.988281 -0.289062 6.75 -0.242188 6.46875 -0.234375 C 6.269531 -0.222656 6.097656 -0.226562 5.953125 -0.25 C 5.816406 -0.269531 5.703125 -0.3125 5.609375 -0.375 C 5.523438 -0.4375 5.453125 -0.519531 5.390625 -0.625 C 5.328125 -0.738281 5.269531 -0.863281 5.21875 -1 L 4.96875 -1.859375 L 2.6875 -1.734375 C 2.644531 -1.472656 2.597656 -1.207031 2.546875 -0.9375 C 2.492188 -0.675781 2.441406 -0.414062 2.390625 -0.15625 C 2.265625 -0.113281 2.132812 -0.0703125 2 -0.03125 C 1.875 0.0078125 1.722656 0.0351562 1.546875 0.046875 C 1.117188 0.0664062 0.796875 0.0078125 0.578125 -0.125 C 0.367188 -0.257812 0.257812 -0.457031 0.25 -0.71875 C 0.238281 -0.832031 0.25 -0.945312 0.28125 -1.0625 C 0.3125 -1.1875 0.34375 -1.332031 0.375 -1.5 C 0.425781 -1.726562 0.492188 -2.007812 0.578125 -2.34375 C 0.660156 -2.6875 0.753906 -3.054688 0.859375 -3.453125 C 0.960938 -3.847656 1.070312 -4.253906 1.1875 -4.671875 C 1.3125 -5.085938 1.425781 -5.476562 1.53125 -5.84375 C 1.632812 -6.207031 1.726562 -6.535156 1.8125 -6.828125 C 1.90625 -7.117188 1.976562 -7.34375 2.03125 -7.5 Z M 3.625 -5.96875 C 3.53125 -5.601562 3.421875 -5.203125 3.296875 -4.765625 C 3.171875 -4.335938 3.066406 -3.898438 2.984375 -3.453125 L 4.53125 -3.53125 C 4.382812 -3.976562 4.238281 -4.410156 4.09375 -4.828125 C 3.957031 -5.253906 3.828125 -5.632812 3.703125 -5.96875 Z M 3.625 -5.96875 "/></g></g><g style="fill:#000000;fill-opacity:1;"><g transform="translate(53.978577, 58.649103)"><path style="stroke:none" d="M 1.984375 0 C 1.617188 0.0078125 1.328125 -0.0859375 1.109375 -0.296875 C 0.898438 -0.503906 0.796875 -0.785156 0.796875 -1.140625 L 0.703125 -7.625 C 0.796875 -7.644531 0.941406 -7.671875 1.140625 -7.703125 C 1.347656 -7.734375 1.539062 -7.753906 1.71875 -7.765625 C 1.914062 -7.765625 2.085938 -7.75 2.234375 -7.71875 C 2.378906 -7.6875 2.5 -7.632812 2.59375 -7.5625 C 2.695312 -7.5 2.773438 -7.398438 2.828125 -7.265625 C 2.878906 -7.128906 2.910156 -6.953125 2.921875 -6.734375 L 2.984375 -1.78125 L 5.859375 -1.828125 C 5.910156 -1.734375 5.960938 -1.609375 6.015625 -1.453125 C 6.078125 -1.296875 6.109375 -1.132812 6.109375 -0.96875 C 6.117188 -0.632812 6.050781 -0.394531 5.90625 -0.25 C 5.769531 -0.113281 5.582031 -0.046875 5.34375 -0.046875 Z M 1.984375 0 "/></g></g><g style="fill:#000000;fill-opacity:1;"><g transform="translate(63.814923, 58.583798)"><path style="stroke:none" d=""/></g></g><g style="fill:#000000;fill-opacity:1;"><g transform="translate(69.724558, 58.692828)"><path style="stroke:none" d="M 6.5 -7.3125 C 6.5625 -7.226562 6.609375 -7.101562 6.640625 -6.9375 C 6.679688 -6.78125 6.703125 -6.617188 6.703125 -6.453125 C 6.679688 -6.128906 6.597656 -5.898438 6.453125 -5.765625 C 6.304688 -5.640625 6.117188 -5.582031 5.890625 -5.59375 L 3.25 -5.703125 L 3.1875 -4.28125 L 5.9375 -4.15625 C 5.988281 -4.070312 6.035156 -3.953125 6.078125 -3.796875 C 6.117188 -3.648438 6.132812 -3.492188 6.125 -3.328125 C 6.113281 -3.003906 6.035156 -2.773438 5.890625 -2.640625 C 5.753906 -2.515625 5.566406 -2.457031 5.328125 -2.46875 L 3.140625 -2.5625 L 3.015625 0.09375 C 2.921875 0.101562 2.773438 0.117188 2.578125 0.140625 C 2.378906 0.160156 2.1875 0.164062 2 0.15625 C 1.800781 0.144531 1.628906 0.117188 1.484375 0.078125 C 1.335938 0.046875 1.21875 -0.00390625 1.125 -0.078125 C 1.03125 -0.160156 0.957031 -0.269531 0.90625 -0.40625 C 0.863281 -0.550781 0.847656 -0.734375 0.859375 -0.953125 L 1.109375 -6.40625 C 1.117188 -6.757812 1.234375 -7.035156 1.453125 -7.234375 C 1.671875 -7.429688 1.960938 -7.519531 2.328125 -7.5 Z M 6.5 -7.3125 "/></g></g><g style="fill:#000000;fill-opacity:1;"><g transform="translate(79.736596, 59.202764)"><path style="stroke:none" d="M 3.046875 -7.140625 C 3.191406 -7.210938 3.410156 -7.273438 3.703125 -7.328125 C 4.003906 -7.378906 4.300781 -7.390625 4.59375 -7.359375 C 5.007812 -7.328125 5.375 -7.234375 5.6875 -7.078125 C 6 -6.929688 6.191406 -6.722656 6.265625 -6.453125 C 6.378906 -6.023438 6.492188 -5.515625 6.609375 -4.921875 C 6.734375 -4.328125 6.859375 -3.710938 6.984375 -3.078125 C 7.109375 -2.453125 7.226562 -1.832031 7.34375 -1.21875 C 7.457031 -0.613281 7.554688 -0.078125 7.640625 0.390625 C 7.535156 0.492188 7.378906 0.570312 7.171875 0.625 C 6.960938 0.6875 6.71875 0.703125 6.4375 0.671875 C 6.25 0.660156 6.085938 0.632812 5.953125 0.59375 C 5.816406 0.550781 5.707031 0.488281 5.625 0.40625 C 5.550781 0.332031 5.488281 0.238281 5.4375 0.125 C 5.394531 0.0078125 5.359375 -0.117188 5.328125 -0.265625 L 5.1875 -1.140625 L 2.90625 -1.34375 C 2.820312 -1.09375 2.734375 -0.835938 2.640625 -0.578125 C 2.546875 -0.316406 2.457031 -0.0664062 2.375 0.171875 C 2.25 0.203125 2.117188 0.226562 1.984375 0.25 C 1.859375 0.269531 1.707031 0.269531 1.53125 0.25 C 1.101562 0.21875 0.789062 0.125 0.59375 -0.03125 C 0.40625 -0.195312 0.320312 -0.410156 0.34375 -0.671875 C 0.351562 -0.785156 0.378906 -0.898438 0.421875 -1.015625 C 0.472656 -1.140625 0.523438 -1.28125 0.578125 -1.4375 C 0.660156 -1.65625 0.765625 -1.921875 0.890625 -2.234375 C 1.023438 -2.554688 1.171875 -2.90625 1.328125 -3.28125 C 1.492188 -3.664062 1.660156 -4.054688 1.828125 -4.453125 C 2.003906 -4.847656 2.171875 -5.222656 2.328125 -5.578125 C 2.484375 -5.929688 2.625 -6.242188 2.75 -6.515625 C 2.875 -6.785156 2.972656 -6.992188 3.046875 -7.140625 Z M 4.421875 -5.40625 C 4.273438 -5.0625 4.109375 -4.679688 3.921875 -4.265625 C 3.742188 -3.847656 3.578125 -3.425781 3.421875 -3 L 4.96875 -2.859375 C 4.894531 -3.316406 4.816406 -3.765625 4.734375 -4.203125 C 4.648438 -4.648438 4.570312 -5.050781 4.5 -5.40625 Z M 4.421875 -5.40625 "/></g></g><g style="fill:#000000;fill-opacity:1;"><g transform="translate(90.911104, 60.234539)"><path style="stroke:none" d="M 3.28125 -2.0625 L 2.96875 0.328125 C 2.882812 0.335938 2.738281 0.34375 2.53125 0.34375 C 2.332031 0.34375 2.140625 0.332031 1.953125 0.3125 C 1.753906 0.289062 1.582031 0.253906 1.4375 0.203125 C 1.300781 0.148438 1.191406 0.0820312 1.109375 0 C 1.023438 -0.0820312 0.96875 -0.191406 0.9375 -0.328125 C 0.90625 -0.472656 0.90625 -0.648438 0.9375 -0.859375 L 1.6875 -6.71875 C 1.707031 -6.894531 1.769531 -7.023438 1.875 -7.109375 C 1.988281 -7.191406 2.128906 -7.253906 2.296875 -7.296875 C 2.597656 -7.347656 2.9375 -7.375 3.3125 -7.375 C 3.6875 -7.375 4.085938 -7.347656 4.515625 -7.296875 C 5.660156 -7.148438 6.488281 -6.800781 7 -6.25 C 7.519531 -5.695312 7.726562 -5.007812 7.625 -4.1875 C 7.550781 -3.675781 7.359375 -3.25 7.046875 -2.90625 C 6.742188 -2.570312 6.398438 -2.332031 6.015625 -2.1875 C 6.265625 -1.75 6.507812 -1.328125 6.75 -0.921875 C 6.988281 -0.523438 7.171875 -0.175781 7.296875 0.125 C 7.179688 0.40625 7.003906 0.609375 6.765625 0.734375 C 6.523438 0.859375 6.269531 0.898438 6 0.859375 C 5.8125 0.835938 5.648438 0.796875 5.515625 0.734375 C 5.390625 0.679688 5.28125 0.609375 5.1875 0.515625 C 5.101562 0.429688 5.023438 0.328125 4.953125 0.203125 C 4.890625 0.0859375 4.832031 -0.0351562 4.78125 -0.171875 L 3.9375 -1.96875 Z M 4.296875 -3.609375 C 4.609375 -3.566406 4.863281 -3.617188 5.0625 -3.765625 C 5.257812 -3.910156 5.378906 -4.132812 5.421875 -4.4375 C 5.453125 -4.757812 5.378906 -5.015625 5.203125 -5.203125 C 5.023438 -5.390625 4.710938 -5.507812 4.265625 -5.5625 C 4.140625 -5.582031 4.039062 -5.59375 3.96875 -5.59375 C 3.894531 -5.59375 3.8125 -5.59375 3.71875 -5.59375 L 3.484375 -3.71875 Z M 4.296875 -3.609375 "/></g></g><g style="fill:#000000;fill-opacity:1;"><g transform="translate(101.797876, 61.682003)"><path style="stroke:none" d="M 6.3125 -0.796875 C 6.175781 -0.722656 6.019531 -0.671875 5.84375 -0.640625 C 5.664062 -0.609375 5.46875 -0.613281 5.25 -0.65625 C 4.957031 -0.707031 4.71875 -0.789062 4.53125 -0.90625 C 4.351562 -1.019531 4.25 -1.171875 4.21875 -1.359375 C 4.125 -2.117188 4.039062 -2.738281 3.96875 -3.21875 C 3.894531 -3.695312 3.847656 -4.113281 3.828125 -4.46875 L 3.765625 -4.484375 C 3.648438 -3.992188 3.550781 -3.546875 3.46875 -3.140625 C 3.382812 -2.742188 3.304688 -2.359375 3.234375 -1.984375 C 3.160156 -1.609375 3.082031 -1.226562 3 -0.84375 C 2.925781 -0.457031 2.835938 -0.03125 2.734375 0.4375 C 2.617188 0.457031 2.472656 0.460938 2.296875 0.453125 C 2.117188 0.453125 1.941406 0.4375 1.765625 0.40625 C 1.410156 0.34375 1.140625 0.234375 0.953125 0.078125 C 0.773438 -0.0664062 0.710938 -0.289062 0.765625 -0.59375 L 2.234375 -6.828125 C 2.316406 -6.929688 2.476562 -7.023438 2.71875 -7.109375 C 2.96875 -7.191406 3.296875 -7.195312 3.703125 -7.125 C 4.140625 -7.050781 4.46875 -6.921875 4.6875 -6.734375 C 4.90625 -6.554688 5.046875 -6.304688 5.109375 -5.984375 C 5.148438 -5.773438 5.191406 -5.535156 5.234375 -5.265625 C 5.273438 -5.003906 5.316406 -4.726562 5.359375 -4.4375 C 5.398438 -4.144531 5.4375 -3.851562 5.46875 -3.5625 C 5.5 -3.28125 5.53125 -3.023438 5.5625 -2.796875 L 5.625 -2.78125 C 5.945312 -3.445312 6.257812 -4.082031 6.5625 -4.6875 C 6.875 -5.300781 7.148438 -5.816406 7.390625 -6.234375 C 7.535156 -6.273438 7.707031 -6.300781 7.90625 -6.3125 C 8.101562 -6.332031 8.328125 -6.320312 8.578125 -6.28125 C 8.972656 -6.207031 9.289062 -6.085938 9.53125 -5.921875 C 9.769531 -5.753906 9.890625 -5.554688 9.890625 -5.328125 C 9.878906 -5.160156 9.863281 -4.898438 9.84375 -4.546875 C 9.820312 -4.203125 9.789062 -3.8125 9.75 -3.375 C 9.71875 -2.9375 9.679688 -2.472656 9.640625 -1.984375 C 9.597656 -1.492188 9.554688 -1.023438 9.515625 -0.578125 C 9.472656 -0.140625 9.429688 0.257812 9.390625 0.625 C 9.359375 1 9.332031 1.285156 9.3125 1.484375 C 9.144531 1.546875 8.984375 1.582031 8.828125 1.59375 C 8.679688 1.601562 8.484375 1.585938 8.234375 1.546875 C 7.921875 1.484375 7.664062 1.378906 7.46875 1.234375 C 7.269531 1.097656 7.195312 0.875 7.25 0.5625 C 7.351562 -0.34375 7.457031 -1.15625 7.5625 -1.875 C 7.675781 -2.59375 7.765625 -3.203125 7.828125 -3.703125 L 7.765625 -3.703125 C 7.628906 -3.398438 7.441406 -3.019531 7.203125 -2.5625 C 6.960938 -2.101562 6.664062 -1.515625 6.3125 -0.796875 Z M 6.3125 -0.796875 "/></g></g></g></svg>