<svg xmlns="http://www.w3.org/2000/svg" xmlns:xlink="http://www.w3.org/1999/xlink" width="500" zoomAndPan="magnify" viewBox="0 0 375 374.999991" height="500" preserveAspectRatio="xMidYMid meet" version="1.0"><defs><g/><clipPath id="359a19016d"><path d="M 71.347656 100 L 184 100 L 184 178 L 71.347656 178 Z M 71.347656 100 " clipRule="nonzero"/></clipPath><clipPath id="2bae732843"><path d="M 164 154 L 224 154 L 224 195.386719 L 164 195.386719 Z M 164 154 " clipRule="nonzero"/></clipPath><clipPath id="337319eb2f"><path d="M 222 115 L 303.652344 115 L 303.652344 174 L 222 174 Z M 222 115 " clipRule="nonzero"/></clipPath><clipPath id="14f3336cc0"><path d="M 196 168 L 231 168 L 231 195.386719 L 196 195.386719 Z M 196 168 " clipRule="nonzero"/></clipPath><clipPath id="72540239c1"><path d="M 191 76.910156 L 228 76.910156 L 228 88 L 191 88 Z M 191 76.910156 " clipRule="nonzero"/></clipPath></defs><path fill="#242424" d="M 184.929688 132.050781 C 149.226562 135.675781 114.21875 152.019531 89.707031 178.359375 C 89.941406 178.714844 90.347656 178.671875 90.683594 178.761719 C 93.972656 179.644531 97.261719 180.503906 100.554688 181.371094 C 101.390625 181.589844 102.226562 181.8125 103.058594 182.046875 C 103.34375 182.125 103.570312 182.070312 103.753906 181.835938 C 105.953125 179.300781 108.378906 176.972656 110.824219 174.679688 C 132.96875 153.570312 162.019531 140.609375 192.097656 135.929688 C 192.027344 135.394531 189.613281 134.871094 189.210938 134.359375 C 216.554688 139.679688 239.351562 162 245.863281 189.039062 C 246.003906 189.539062 246.0625 189.574219 246.578125 189.472656 C 249.628906 188.71875 252.683594 187.980469 255.722656 187.191406 C 258.195312 186.539062 260.679688 185.855469 263.136719 185.148438 C 263.402344 184.941406 263.179688 184.628906 263.089844 184.382812 C 249.949219 153.792969 217.804688 133.671875 184.929688 132.050781 Z M 184.929688 132.050781 " fill-opacity="1" fillRule="nonzero"/><path fill="#242424" d="M 213.953125 131.070312 C 214.660156 130.921875 215.4375 131.113281 216.167969 131.09375 C 216.554688 131.058594 217.347656 131.324219 217.316406 130.699219 C 217.28125 127.972656 217.285156 125.246094 217.285156 122.519531 C 217.285156 121.136719 216.738281 120.035156 215.652344 119.195312 C 212.039062 116.738281 202.820312 110.921875 201.917969 110.332031 C 201.648438 110.160156 201.421875 110.125 201.125 110.300781 C 196.546875 112.894531 191.976562 115.507812 187.410156 118.128906 C 186.25 118.902344 184.488281 120.027344 184.449219 121.550781 C 184.503906 124.328125 184.445312 127.285156 184.363281 130.507812 C 184.34375 131.34375 184.347656 131.351562 185.15625 131.320312 C 213.730469 130.507812 241.949219 145.417969 259.652344 167.492188 C 263.289062 172.125 266.546875 177.078125 269.132812 182.378906 C 269.304688 182.652344 269.378906 183.128906 269.792969 183.011719 C 269.992188 182.949219 270.195312 182.886719 270.390625 182.820312 C 273.808594 181.648438 277.210938 180.441406 280.621094 179.238281 C 281.203125 179.03125 281.21875 178.972656 280.882812 178.492188 C 263.105469 151.058594 231.789062 133.308594 199.304688 131.054688 C 200.636719 130.878906 202.027344 131.054688 203.378906 131.015625 C 203.707031 130.945312 204.503906 131.234375 204.515625 130.722656 C 204.484375 128.125 204.464844 125.535156 204.535156 122.941406 C 204.542969 122.5 204.605469 122.449219 205.042969 122.453125 C 206.984375 122.480469 208.925781 122.453125 210.859375 122.589844 C 211.730469 122.648438 211.722656 122.625 211.738281 123.503906 C 211.75 125.886719 211.863281 128.277344 211.796875 130.65625 C 211.78125 131.003906 211.234375 130.96875 211.203125 130.640625 C 211.042969 128.292969 211.101562 125.925781 210.953125 123.574219 C 210.914062 123.1875 210.441406 123.292969 210.164062 123.265625 C 208.75 123.238281 207.335938 123.210938 205.921875 123.183594 C 205.390625 123.144531 205.175781 123.316406 205.242188 123.925781 C 205.21875 126.179688 205.296875 128.433594 205.070312 130.679688 C 205.042969 130.933594 205.09375 131.003906 205.371094 131.039062 C 211.355469 131.539062 217.21875 132.828125 223.046875 134.242188 C 247.734375 140.570312 270.582031 155.742188 284.621094 177.175781 C 284.722656 177.378906 284.90625 177.613281 285.160156 177.527344 C 285.285156 177.492188 285.40625 177.4375 285.527344 177.394531 C 288.011719 176.480469 290.449219 175.453125 292.984375 174.6875 C 293.449219 174.539062 292.933594 174.105469 292.792969 173.890625 C 273.863281 149.589844 244.609375 133.761719 213.953125 131.070312 Z M 213.953125 131.070312 " fill-opacity="1" fillRule="nonzero"/><g clip-path="url(#359a19016d)"><path fill="#242424" d="M 175.828125 131.082031 C 176.441406 130.851562 177.148438 130.976562 177.726562 131.269531 C 179.21875 132.128906 180.945312 131.738281 182.574219 131.660156 C 183.519531 131.601562 183.496094 131.585938 183.492188 130.625 C 183.46875 127.53125 183.449219 124.441406 183.425781 121.351562 C 183.417969 121 183.316406 120.917969 182.988281 121 C 179.214844 121.886719 175.503906 123.011719 171.757812 124.011719 C 171 124.21875 170.992188 124.222656 170.972656 125.023438 C 170.9375 126.671875 170.953125 128.324219 170.871094 129.976562 C 170.773438 130.667969 169.742188 130.144531 169.273438 130.238281 C 167.519531 130.203125 165.765625 130.167969 164.007812 130.160156 C 162.84375 130.152344 162.933594 130.234375 162.933594 129.117188 C 162.910156 121.074219 162.957031 113.03125 162.898438 104.988281 C 162.875 103.210938 161.335938 102.074219 160.203125 100.90625 C 158.5625 99.300781 156.867188 101.644531 155.796875 102.828125 C 155.328125 103.421875 155.0625 104.09375 155.027344 104.851562 C 154.929688 109.042969 155.023438 125.707031 155.027344 129.84375 C 155.027344 130.371094 155 130.414062 154.457031 130.460938 C 153.464844 130.542969 152.472656 130.613281 151.480469 130.703125 C 147.246094 131.039062 143.085938 131.914062 138.921875 132.707031 C 138.203125 132.84375 138.121094 132.785156 138.179688 131.984375 C 138.496094 130.902344 140.21875 130.226562 141.226562 128.941406 C 141.253906 128.886719 141.28125 128.835938 141.308594 128.796875 C 141.355469 128.800781 141.40625 128.800781 141.453125 128.800781 C 143.445312 128.800781 145.0625 127.183594 145.0625 125.191406 C 145.0625 123.308594 143.621094 121.765625 141.789062 121.59375 C 141.378906 119.597656 139.613281 118.09375 137.496094 118.09375 C 135.351562 118.09375 133.566406 119.636719 133.191406 121.671875 C 131.285156 121.769531 129.765625 123.34375 129.765625 125.277344 C 129.765625 127.269531 131.382812 128.886719 133.375 128.886719 C 133.710938 128.886719 134.039062 128.839844 134.347656 128.753906 C 134.464844 128.824219 134.558594 128.933594 134.660156 129.070312 C 135.492188 130.15625 135.574219 130.300781 136.128906 130.988281 C 136.941406 131.714844 136.765625 131.679688 136.894531 132.773438 C 136.917969 133.152344 136.859375 133.226562 136.5 133.324219 C 129.007812 135.238281 121.757812 137.953125 114.796875 141.328125 C 98.476562 149.257812 83.742188 160.441406 71.570312 173.886719 C 71.441406 174.019531 71.203125 174.277344 71.464844 174.375 C 71.589844 174.414062 71.722656 174.425781 71.851562 174.449219 C 72.980469 174.660156 74.121094 174.847656 75.25 175.078125 C 78.300781 175.695312 81.347656 176.34375 84.363281 177.128906 C 84.691406 177.214844 84.902344 177.152344 85.125 176.90625 C 91.46875 170.007812 98.75 163.992188 106.339844 158.507812 C 126.839844 143.804688 151.054688 134.949219 175.828125 131.082031 Z M 173.613281 126.644531 C 173.632812 126.207031 173.675781 126.148438 174.085938 126.054688 C 175.949219 125.628906 177.828125 125.296875 179.699219 124.925781 C 180.144531 124.785156 180.289062 125.089844 180.234375 125.496094 C 180.234375 126.253906 180.234375 127.011719 180.234375 127.769531 C 180.214844 127.769531 180.199219 127.769531 180.183594 127.769531 C 180.089844 128.402344 180.429688 130.636719 179.925781 130.878906 C 179.484375 131.078125 179.699219 127.117188 179.601562 126.617188 C 179.574219 126.25 179.75 125.65625 179.152344 125.789062 C 177.585938 126.074219 176.03125 126.445312 174.476562 126.808594 C 173.871094 126.84375 174.277344 129.382812 174.171875 129.957031 C 174.214844 130.285156 174.007812 130.96875 173.648438 130.484375 C 173.554688 129.214844 173.640625 127.921875 173.613281 126.644531 Z M 138.8125 127.960938 C 138.832031 127.863281 138.863281 127.792969 138.898438 127.734375 C 139.300781 128.144531 139.808594 128.453125 140.367188 128.628906 C 140.371094 128.679688 140.347656 128.738281 140.292969 128.800781 C 139.851562 129.335938 137.953125 131.605469 138.007812 130.054688 C 138.152344 129.457031 138.671875 128.628906 138.8125 127.960938 Z M 136.828125 130.382812 C 136.210938 129.875 135.171875 128.8125 135.511719 128.179688 C 135.828125 127.945312 136.105469 127.660156 136.332031 127.339844 C 136.367188 127.375 136.410156 127.417969 136.449219 127.476562 C 136.953125 128.195312 137.257812 128.984375 137.253906 130.042969 C 137.289062 130.179688 137.144531 130.691406 136.828125 130.382812 Z M 136.828125 130.382812 " fill-opacity="1" fillRule="nonzero"/></g><path fill="#242424" d="M 213.875 151.566406 C 214.183594 151.386719 213.851562 151.109375 213.691406 150.949219 C 211.582031 148.855469 209.410156 146.679688 206.875 145.125 C 179.332031 152.296875 153.273438 167.410156 135.261719 189.675781 C 135.042969 190.191406 136.222656 190.003906 136.476562 190.15625 C 142.566406 191.328125 148.683594 192.355469 154.828125 193.183594 C 163.859375 181.84375 174.9375 172.214844 187.25 164.59375 C 195.644531 159.347656 204.578125 154.941406 213.875 151.566406 Z M 213.875 151.566406 " fill-opacity="1" fillRule="nonzero"/><path fill="#242424" d="M 203.320312 142.652344 C 201.15625 140.796875 198.492188 139.546875 196.101562 137.992188 C 195.742188 137.773438 195.371094 137.738281 194.96875 137.824219 C 192.539062 138.335938 190.097656 138.828125 187.664062 139.355469 C 158.6875 145.90625 131.164062 160.589844 111.203125 182.804688 C 110.894531 183.179688 109.828125 183.9375 110.761719 184.136719 C 116.007812 185.375 121.210938 186.808594 126.457031 188.046875 C 127.390625 188.382812 127.632812 187.1875 128.210938 186.703125 C 135.769531 177.882812 144.628906 170.234375 154.269531 163.773438 C 169.109375 153.808594 186.179688 146.875 203.320312 142.652344 Z M 203.320312 142.652344 " fill-opacity="1" fillRule="nonzero"/><g clip-path="url(#2bae732843)"><path fill="#242424" d="M 223.085938 164.070312 C 223.53125 163.851562 223.550781 163.777344 223.324219 163.363281 C 221.546875 160.394531 219.550781 157.566406 217.328125 154.917969 C 217.152344 154.699219 216.945312 154.652344 216.699219 154.757812 C 212.476562 156.539062 208.332031 158.492188 204.296875 160.667969 C 189.027344 168.859375 175.007812 179.75 164.355469 193.496094 C 163.75 194.222656 164.101562 194.253906 164.925781 194.3125 C 170.332031 194.71875 174.628906 195.046875 180.257812 195.257812 C 181.683594 195.285156 183.777344 195.324219 185.871094 195.371094 C 186.605469 195.417969 186.761719 194.515625 187.226562 194.109375 C 193.824219 186.027344 201.40625 178.785156 209.808594 172.601562 C 214.070312 169.507812 218.429688 166.519531 223.085938 164.070312 Z M 223.085938 164.070312 " fill-opacity="1" fillRule="nonzero"/></g><g clip-path="url(#337319eb2f)"><path fill="#242424" d="M 303.289062 170.554688 C 287.738281 152.800781 266.808594 139.101562 243.496094 134.441406 C 243.152344 134.402344 243.066406 134.289062 243.066406 133.90625 C 243.066406 133.171875 243.109375 132.441406 243.105469 131.707031 C 243.101562 131.28125 243.289062 131.101562 243.664062 130.878906 C 245.167969 129.984375 245.121094 129.964844 246.414062 128.960938 C 246.589844 128.828125 246.75 128.691406 246.917969 128.5625 C 246.925781 128.5625 246.925781 128.5625 246.933594 128.5625 C 249.34375 128.5625 251.292969 126.609375 251.292969 124.203125 C 251.292969 121.796875 249.339844 119.839844 246.933594 119.839844 C 246.902344 119.839844 246.878906 119.839844 246.851562 119.84375 C 246.773438 119.777344 246.726562 119.683594 246.726562 119.539062 C 246.652344 119.152344 246.609375 118.757812 246.480469 118.390625 C 245.234375 114.609375 239.585938 114.769531 238.402344 118.265625 C 238.152344 118.746094 237.992188 119.277344 237.933594 119.835938 C 237.699219 119.796875 237.460938 119.777344 237.214844 119.777344 C 234.804688 119.777344 232.855469 121.730469 232.855469 124.140625 C 232.855469 126.550781 234.808594 128.5 237.214844 128.5 C 237.640625 128.5 238.050781 128.4375 238.441406 128.324219 C 238.558594 128.414062 238.671875 128.523438 238.789062 128.65625 C 239.671875 129.675781 240.175781 130.167969 241.085938 131.21875 C 241.613281 131.71875 241.398438 132.097656 241.28125 133.410156 C 241.199219 134.121094 241.035156 133.875 240.664062 133.785156 C 235.25 132.628906 229.734375 132.148438 224.230469 131.652344 C 224.230469 131.664062 224.230469 131.675781 224.230469 131.6875 C 223.550781 131.628906 222.871094 131.609375 222.1875 131.617188 C 222.160156 131.617188 222.136719 131.671875 222.105469 131.699219 C 250.53125 135.574219 277.894531 150.289062 295.324219 173.324219 C 295.597656 173.710938 295.640625 173.703125 296.097656 173.542969 C 297.558594 173.039062 299.023438 172.554688 300.496094 172.097656 C 301.347656 171.832031 302.214844 171.632812 303.074219 171.398438 C 303.789062 171.195312 303.804688 171.136719 303.289062 170.554688 Z M 243.714844 127.148438 C 244.269531 127.75 244.988281 128.199219 245.804688 128.414062 C 244.800781 129.183594 244.300781 129.515625 243.089844 130.105469 C 243.023438 129.941406 243.164062 128.058594 243.714844 127.148438 Z M 241.785156 130.058594 C 241.445312 130.957031 240.171875 128.875 239.550781 128.03125 C 239.503906 127.96875 239.472656 127.925781 239.449219 127.878906 C 240.121094 127.480469 240.675781 126.898438 241.046875 126.207031 C 241.796875 127.570312 242.316406 128.472656 241.785156 130.058594 Z M 241.785156 130.058594 " fill-opacity="1" fillRule="nonzero"/></g><g clip-path="url(#14f3336cc0)"><path fill="#242424" d="M 226.246094 168.695312 C 225.960938 168.078125 225.886719 168.066406 225.320312 168.40625 C 214.246094 175.464844 204.230469 184.328125 196.292969 194.816406 C 196.1875 194.953125 196.003906 195.171875 196.046875 195.265625 C 196.160156 195.503906 196.414062 195.308594 196.605469 195.324219 C 199.824219 195.226562 203.324219 195.113281 205.867188 195.035156 C 211.238281 194.664062 214.984375 194.359375 219.972656 193.894531 C 220.664062 193.910156 222.269531 191.042969 222.984375 190.382812 C 225.355469 187.523438 227.863281 184.753906 230.671875 182.3125 C 231 182.070312 230.921875 181.722656 230.820312 181.386719 C 229.613281 177.050781 228.191406 172.769531 226.246094 168.695312 Z M 226.246094 168.695312 " fill-opacity="1" fillRule="nonzero"/></g><g clip-path="url(#72540239c1)"><path fill="#242424" d="M 191.816406 82.355469 C 198.097656 79.738281 205.597656 81.789062 208.863281 87.960938 C 212.324219 80.332031 218.996094 77.402344 226.957031 81.058594 C 227.15625 81.085938 227.402344 81.335938 227.5625 81.167969 C 222.175781 76.148438 213.117188 74.667969 208.695312 81.699219 C 208.523438 81.925781 208.375 81.945312 208.175781 81.742188 C 203.300781 77.15625 196.34375 78.015625 191.617188 82.304688 C 191.6875 82.324219 191.765625 82.371094 191.816406 82.355469 Z M 191.816406 82.355469 " fill-opacity="1" fillRule="nonzero"/></g><path fill="#242424" d="M 225.023438 94.328125 C 224.476562 95.109375 224.394531 96.011719 223.832031 95.613281 C 219.382812 91.792969 212.394531 93.109375 208.777344 97.324219 C 213.890625 95.273438 219.800781 95.082031 223.589844 99.730469 C 223.867188 99.90625 224.964844 101.832031 225.128906 101.046875 C 227.820312 93.140625 234.214844 91.578125 241.597656 93.976562 C 236.984375 90.09375 229.003906 88.820312 225.023438 94.328125 Z M 225.023438 94.328125 " fill-opacity="1" fillRule="nonzero"/><path fill="#242424" d="M 172.03125 121.992188 C 175.46875 120.960938 178.921875 120.015625 182.382812 119.082031 C 183.074219 118.890625 183.703125 118.589844 184.289062 118.179688 C 187.84375 115.660156 192.207031 113.742188 195.746094 111.585938 C 191.910156 112.421875 188.132812 113.46875 184.351562 114.515625 C 183.28125 114.820312 182.320312 115.351562 181.378906 115.925781 C 178.253906 117.996094 174.726562 119.699219 171.808594 121.964844 C 171.882812 121.972656 171.960938 122.011719 172.03125 121.992188 Z M 172.03125 121.992188 " fill-opacity="1" fillRule="nonzero"/><g fill="#242424" fill-opacity="1"><g transform="translate(2.425361, 259.395095)"><g><path d="M 1.40625 0 L 1.40625 -4.390625 L 5.296875 -5.15625 L 5.296875 -31.40625 L 1.40625 -32.171875 L 1.40625 -36.59375 L 16.5625 -36.59375 L 16.5625 -32.171875 L 12.640625 -31.40625 L 12.640625 -5.625 L 22.96875 -5.625 L 23.328125 -10.234375 L 28.921875 -10.234375 L 28.921875 0 Z M 1.40625 0 "/></g></g></g><g fill="#242424" fill-opacity="1"><g transform="translate(36.793646, 259.395095)"><g><path d="M 34.859375 -18.015625 C 34.859375 -12.660156 33.320312 -8.226562 30.25 -4.71875 C 27.1875 -1.21875 23.175781 0.53125 18.21875 0.53125 C 13.28125 0.53125 9.289062 -1.21875 6.25 -4.71875 C 3.207031 -8.226562 1.6875 -12.660156 1.6875 -18.015625 L 1.6875 -18.578125 C 1.6875 -23.898438 3.203125 -28.320312 6.234375 -31.84375 C 9.265625 -35.363281 13.25 -37.125 18.1875 -37.125 C 23.15625 -37.125 27.175781 -35.363281 30.25 -31.84375 C 33.320312 -28.320312 34.859375 -23.898438 34.859375 -18.578125 Z M 27.546875 -18.625 C 27.546875 -22.40625 26.753906 -25.476562 25.171875 -27.84375 C 23.597656 -30.207031 21.269531 -31.390625 18.1875 -31.390625 C 15.113281 -31.390625 12.816406 -30.21875 11.296875 -27.875 C 9.773438 -25.53125 9.015625 -22.445312 9.015625 -18.625 L 9.015625 -18.015625 C 9.015625 -14.160156 9.78125 -11.054688 11.3125 -8.703125 C 12.851562 -6.347656 15.15625 -5.171875 18.21875 -5.171875 C 21.320312 -5.171875 23.648438 -6.347656 25.203125 -8.703125 C 26.765625 -11.054688 27.546875 -14.160156 27.546875 -18.015625 Z M 27.546875 -18.625 "/></g></g></g><g fill="#242424" fill-opacity="1"><g transform="translate(77.3925, 259.395095)"><g><path d="M 31.390625 -24.25 L 25.9375 -24.25 L 25.1875 -29.125 C 24.457031 -29.84375 23.546875 -30.410156 22.453125 -30.828125 C 21.359375 -31.253906 20.066406 -31.46875 18.578125 -31.46875 C 15.390625 -31.46875 12.9375 -30.3125 11.21875 -28 C 9.5 -25.6875 8.640625 -22.671875 8.640625 -18.953125 L 8.640625 -17.671875 C 8.640625 -13.953125 9.492188 -10.925781 11.203125 -8.59375 C 12.910156 -6.269531 15.328125 -5.109375 18.453125 -5.109375 C 19.890625 -5.109375 21.207031 -5.316406 22.40625 -5.734375 C 23.601562 -6.148438 24.53125 -6.71875 25.1875 -7.4375 L 25.9375 -12.3125 L 31.390625 -12.3125 L 31.390625 -5.078125 C 29.910156 -3.367188 28.023438 -2.003906 25.734375 -0.984375 C 23.453125 0.0234375 20.894531 0.53125 18.0625 0.53125 C 13.15625 0.53125 9.132812 -1.164062 6 -4.5625 C 2.875 -7.96875 1.3125 -12.335938 1.3125 -17.671875 L 1.3125 -18.90625 C 1.3125 -24.207031 2.867188 -28.566406 5.984375 -31.984375 C 9.097656 -35.410156 13.125 -37.125 18.0625 -37.125 C 20.894531 -37.125 23.453125 -36.609375 25.734375 -35.578125 C 28.015625 -34.546875 29.898438 -33.179688 31.390625 -31.484375 Z M 31.390625 -24.25 "/></g></g></g><g fill="#242424" fill-opacity="1"><g transform="translate(114.951448, 259.395095)"><g><path d="M 1.03125 -4.390625 L 3.640625 -4.78125 L 14.78125 -36.59375 L 22.296875 -36.59375 L 33.34375 -4.78125 L 35.96875 -4.390625 L 35.96875 0 L 23.5 0 L 23.5 -4.390625 L 26.03125 -4.84375 L 24.421875 -9.875 L 12.5625 -9.875 L 10.953125 -4.84375 L 13.5 -4.390625 L 13.5 0 L 1.03125 0 Z M 14.296875 -15.28125 L 22.6875 -15.28125 L 18.578125 -28.171875 L 18.421875 -28.171875 Z M 14.296875 -15.28125 "/></g></g></g><g fill="#242424" fill-opacity="1"><g transform="translate(156.128146, 259.395095)"><g><path d="M 1.40625 0 L 1.40625 -4.390625 L 5.296875 -5.15625 L 5.296875 -31.40625 L 1.40625 -32.171875 L 1.40625 -36.59375 L 16.5625 -36.59375 L 16.5625 -32.171875 L 12.640625 -31.40625 L 12.640625 -5.625 L 22.96875 -5.625 L 23.328125 -10.234375 L 28.921875 -10.234375 L 28.921875 0 Z M 1.40625 0 "/></g></g></g><g fill="#242424" fill-opacity="1"><g transform="translate(190.496431, 259.395095)"><g/></g></g><g fill="#242424" fill-opacity="1"><g transform="translate(207.328679, 259.395095)"><g><path d="M 1.40625 -4.390625 L 5.296875 -5.15625 L 5.296875 -31.40625 L 1.40625 -32.171875 L 1.40625 -36.59375 L 30.53125 -36.59375 L 30.53125 -26.5625 L 24.90625 -26.5625 L 24.578125 -30.9375 L 12.640625 -30.9375 L 12.640625 -20.859375 L 25.453125 -20.859375 L 25.453125 -15.203125 L 12.640625 -15.203125 L 12.640625 -5.15625 L 16.5625 -4.390625 L 16.5625 0 L 1.40625 0 Z M 1.40625 -4.390625 "/></g></g></g><g fill="#242424" fill-opacity="1"><g transform="translate(243.329986, 259.395095)"><g><path d="M 1.03125 -4.390625 L 3.640625 -4.78125 L 14.78125 -36.59375 L 22.296875 -36.59375 L 33.34375 -4.78125 L 35.96875 -4.390625 L 35.96875 0 L 23.5 0 L 23.5 -4.390625 L 26.03125 -4.84375 L 24.421875 -9.875 L 12.5625 -9.875 L 10.953125 -4.84375 L 13.5 -4.390625 L 13.5 0 L 1.03125 0 Z M 14.296875 -15.28125 L 22.6875 -15.28125 L 18.578125 -28.171875 L 18.421875 -28.171875 Z M 14.296875 -15.28125 "/></g></g></g><g fill="#242424" fill-opacity="1"><g transform="translate(284.506684, 259.395095)"><g><path d="M 17.84375 -36.59375 C 22 -36.59375 25.253906 -35.640625 27.609375 -33.734375 C 29.972656 -31.835938 31.15625 -29.210938 31.15625 -25.859375 C 31.15625 -24.015625 30.660156 -22.414062 29.671875 -21.0625 C 28.691406 -19.707031 27.242188 -18.609375 25.328125 -17.765625 C 27.492188 -17.128906 29.046875 -16.066406 29.984375 -14.578125 C 30.929688 -13.097656 31.40625 -11.265625 31.40625 -9.078125 L 31.40625 -7.21875 C 31.40625 -6.40625 31.566406 -5.773438 31.890625 -5.328125 C 32.210938 -4.890625 32.738281 -4.628906 33.46875 -4.546875 L 34.375 -4.421875 L 34.375 0 L 30.578125 0 C 28.179688 0 26.5 -0.644531 25.53125 -1.9375 C 24.5625 -3.226562 24.078125 -4.894531 24.078125 -6.9375 L 24.078125 -9.015625 C 24.078125 -10.796875 23.601562 -12.191406 22.65625 -13.203125 C 21.707031 -14.222656 20.367188 -14.753906 18.640625 -14.796875 L 12.640625 -14.796875 L 12.640625 -5.15625 L 16.5625 -4.390625 L 16.5625 0 L 1.40625 0 L 1.40625 -4.390625 L 5.296875 -5.15625 L 5.296875 -31.40625 L 1.40625 -32.171875 L 1.40625 -36.59375 Z M 12.640625 -20.453125 L 17.71875 -20.453125 C 19.757812 -20.453125 21.289062 -20.890625 22.3125 -21.765625 C 23.332031 -22.640625 23.84375 -23.894531 23.84375 -25.53125 C 23.84375 -27.175781 23.335938 -28.488281 22.328125 -29.46875 C 21.316406 -30.445312 19.820312 -30.9375 17.84375 -30.9375 L 12.640625 -30.9375 Z M 12.640625 -20.453125 "/></g></g></g><g fill="#242424" fill-opacity="1"><g transform="translate(324.100589, 259.395095)"><g><path d="M 36.71875 -27.0625 L 36.5625 -27.09375 L 26.765625 0 L 21.84375 0 L 12.09375 -26.984375 L 11.9375 -26.96875 L 12.640625 -10.90625 L 12.640625 -5.15625 L 16.5625 -4.390625 L 16.5625 0 L 1.40625 0 L 1.40625 -4.390625 L 5.296875 -5.15625 L 5.296875 -31.40625 L 1.40625 -32.171875 L 1.40625 -36.59375 L 14.875 -36.59375 L 24.203125 -9.625 L 24.359375 -9.625 L 33.75 -36.59375 L 47.265625 -36.59375 L 47.265625 -32.171875 L 43.34375 -31.40625 L 43.34375 -5.15625 L 47.265625 -4.390625 L 47.265625 0 L 32.125 0 L 32.125 -4.390625 L 36.015625 -5.15625 L 36.015625 -10.90625 Z M 36.71875 -27.0625 "/></g></g></g><g fill="#242424" fill-opacity="1"><g transform="translate(37.496399, 293.126601)"><g><path d="M 15.390625 -7.953125 C 15.390625 -5.585938 14.710938 -3.628906 13.359375 -2.078125 C 12.003906 -0.535156 10.234375 0.234375 8.046875 0.234375 C 5.859375 0.234375 4.09375 -0.535156 2.75 -2.078125 C 1.414062 -3.628906 0.75 -5.585938 0.75 -7.953125 L 0.75 -8.203125 C 0.75 -10.554688 1.414062 -12.507812 2.75 -14.0625 C 4.09375 -15.613281 5.851562 -16.390625 8.03125 -16.390625 C 10.226562 -16.390625 12.003906 -15.613281 13.359375 -14.0625 C 14.710938 -12.507812 15.390625 -10.554688 15.390625 -8.203125 Z M 12.171875 -8.21875 C 12.171875 -9.894531 11.820312 -11.253906 11.125 -12.296875 C 10.425781 -13.335938 9.394531 -13.859375 8.03125 -13.859375 C 6.675781 -13.859375 5.660156 -13.335938 4.984375 -12.296875 C 4.316406 -11.265625 3.984375 -9.90625 3.984375 -8.21875 L 3.984375 -7.953125 C 3.984375 -6.253906 4.320312 -4.882812 5 -3.84375 C 5.675781 -2.800781 6.691406 -2.28125 8.046875 -2.28125 C 9.421875 -2.28125 10.453125 -2.800781 11.140625 -3.84375 C 11.828125 -4.882812 12.171875 -6.253906 12.171875 -7.953125 Z M 12.171875 -8.21875 "/></g></g></g><g fill="#242424" fill-opacity="1"><g transform="translate(58.110111, 293.126601)"><g><path d="M 7.875 -16.15625 C 9.71875 -16.15625 11.160156 -15.734375 12.203125 -14.890625 C 13.242188 -14.054688 13.765625 -12.898438 13.765625 -11.421875 C 13.765625 -10.609375 13.546875 -9.898438 13.109375 -9.296875 C 12.671875 -8.703125 12.03125 -8.21875 11.1875 -7.84375 C 12.144531 -7.5625 12.832031 -7.09375 13.25 -6.4375 C 13.664062 -5.789062 13.875 -4.976562 13.875 -4 L 13.875 -3.1875 C 13.875 -2.832031 13.941406 -2.554688 14.078125 -2.359375 C 14.222656 -2.160156 14.457031 -2.046875 14.78125 -2.015625 L 15.1875 -1.953125 L 15.1875 0 L 13.515625 0 C 12.453125 0 11.707031 -0.28125 11.28125 -0.84375 C 10.851562 -1.414062 10.640625 -2.15625 10.640625 -3.0625 L 10.640625 -3.984375 C 10.640625 -4.765625 10.425781 -5.378906 10 -5.828125 C 9.582031 -6.273438 8.992188 -6.507812 8.234375 -6.53125 L 5.578125 -6.53125 L 5.578125 -2.28125 L 7.3125 -1.9375 L 7.3125 0 L 0.625 0 L 0.625 -1.9375 L 2.34375 -2.28125 L 2.34375 -13.875 L 0.625 -14.203125 L 0.625 -16.15625 Z M 5.578125 -9.03125 L 7.828125 -9.03125 C 8.734375 -9.03125 9.410156 -9.222656 9.859375 -9.609375 C 10.304688 -9.992188 10.53125 -10.550781 10.53125 -11.28125 C 10.53125 -12 10.304688 -12.578125 9.859375 -13.015625 C 9.410156 -13.453125 8.75 -13.671875 7.875 -13.671875 L 5.578125 -13.671875 Z M 5.578125 -9.03125 "/></g></g></g><g fill="#242424" fill-opacity="1"><g transform="translate(78.280023, 293.126601)"><g><path d="M 14.015625 -1.796875 C 13.492188 -1.273438 12.726562 -0.804688 11.71875 -0.390625 C 10.71875 0.0234375 9.445312 0.234375 7.90625 0.234375 C 5.71875 0.234375 3.9375 -0.492188 2.5625 -1.953125 C 1.195312 -3.421875 0.515625 -5.320312 0.515625 -7.65625 L 0.515625 -8.21875 C 0.515625 -10.632812 1.191406 -12.597656 2.546875 -14.109375 C 3.898438 -15.628906 5.664062 -16.390625 7.84375 -16.390625 C 9.101562 -16.390625 10.253906 -16.1875 11.296875 -15.78125 C 12.347656 -15.382812 13.222656 -14.84375 13.921875 -14.15625 L 13.921875 -10.90625 L 11.515625 -10.90625 L 11.0625 -13.0625 C 10.769531 -13.3125 10.378906 -13.507812 9.890625 -13.65625 C 9.410156 -13.8125 8.851562 -13.890625 8.21875 -13.890625 C 6.8125 -13.890625 5.710938 -13.367188 4.921875 -12.328125 C 4.140625 -11.285156 3.75 -9.921875 3.75 -8.234375 L 3.75 -7.65625 C 3.75 -6.007812 4.132812 -4.695312 4.90625 -3.71875 C 5.675781 -2.738281 6.785156 -2.25 8.234375 -2.25 C 8.890625 -2.25 9.414062 -2.304688 9.8125 -2.421875 C 10.21875 -2.535156 10.535156 -2.664062 10.765625 -2.8125 L 10.765625 -5.546875 L 8.453125 -5.734375 L 8.453125 -8 L 14.015625 -8 Z M 14.015625 -1.796875 "/></g></g></g><g fill="#242424" fill-opacity="1"><g transform="translate(97.839709, 293.126601)"><g><path d="M 0.453125 -1.9375 L 1.609375 -2.109375 L 6.53125 -16.15625 L 9.84375 -16.15625 L 14.734375 -2.109375 L 15.890625 -1.9375 L 15.890625 0 L 10.375 0 L 10.375 -1.9375 L 11.5 -2.140625 L 10.796875 -4.359375 L 5.546875 -4.359375 L 4.84375 -2.140625 L 5.96875 -1.9375 L 5.96875 0 L 0.453125 0 Z M 6.3125 -6.75 L 10.03125 -6.75 L 8.203125 -12.4375 L 8.140625 -12.4375 Z M 6.3125 -6.75 "/></g></g></g><g fill="#242424" fill-opacity="1"><g transform="translate(118.708606, 293.126601)"><g><path d="M 17.140625 -16.15625 L 17.140625 -14.203125 L 15.40625 -13.875 L 15.40625 0 L 12.171875 0 L 5.65625 -10.875 L 5.578125 -10.875 L 5.578125 -2.28125 L 7.3125 -1.9375 L 7.3125 0 L 0.625 0 L 0.625 -1.9375 L 2.34375 -2.28125 L 2.34375 -13.875 L 0.625 -14.203125 L 0.625 -16.15625 L 5.578125 -16.15625 L 12.109375 -5.28125 L 12.171875 -5.296875 L 12.171875 -13.875 L 10.453125 -14.203125 L 10.453125 -16.15625 Z M 17.140625 -16.15625 "/></g></g></g><g fill="#242424" fill-opacity="1"><g transform="translate(140.809047, 293.126601)"><g><path d="M 0.609375 -14.203125 L 0.609375 -16.15625 L 7.296875 -16.15625 L 7.296875 -14.203125 L 5.578125 -13.875 L 5.578125 -2.28125 L 7.296875 -1.9375 L 7.296875 0 L 0.609375 0 L 0.609375 -1.9375 L 2.34375 -2.28125 L 2.34375 -13.875 Z M 0.609375 -14.203125 "/></g></g></g><g fill="#242424" fill-opacity="1"><g transform="translate(153.267934, 293.126601)"><g><path d="M 13.859375 -10.71875 L 11.453125 -10.71875 L 11.125 -12.859375 C 10.800781 -13.179688 10.394531 -13.429688 9.90625 -13.609375 C 9.425781 -13.796875 8.859375 -13.890625 8.203125 -13.890625 C 6.796875 -13.890625 5.710938 -13.378906 4.953125 -12.359375 C 4.191406 -11.335938 3.8125 -10.007812 3.8125 -8.375 L 3.8125 -7.796875 C 3.8125 -6.160156 4.1875 -4.828125 4.9375 -3.796875 C 5.695312 -2.765625 6.765625 -2.25 8.140625 -2.25 C 8.785156 -2.25 9.367188 -2.34375 9.890625 -2.53125 C 10.421875 -2.71875 10.832031 -2.96875 11.125 -3.28125 L 11.453125 -5.4375 L 13.859375 -5.4375 L 13.859375 -2.25 C 13.210938 -1.488281 12.382812 -0.882812 11.375 -0.4375 C 10.363281 0.0078125 9.234375 0.234375 7.984375 0.234375 C 5.816406 0.234375 4.039062 -0.515625 2.65625 -2.015625 C 1.269531 -3.523438 0.578125 -5.453125 0.578125 -7.796875 L 0.578125 -8.34375 C 0.578125 -10.6875 1.265625 -12.613281 2.640625 -14.125 C 4.015625 -15.632812 5.796875 -16.390625 7.984375 -16.390625 C 9.234375 -16.390625 10.359375 -16.160156 11.359375 -15.703125 C 12.367188 -15.253906 13.203125 -14.65625 13.859375 -13.90625 Z M 13.859375 -10.71875 "/></g></g></g><g fill="#242424" fill-opacity="1"><g transform="translate(172.539151, 293.126601)"><g/></g></g><g fill="#242424" fill-opacity="1"><g transform="translate(182.656992, 293.126601)"><g><path d="M 8.3125 -16.15625 C 10.164062 -16.15625 11.625 -15.679688 12.6875 -14.734375 C 13.757812 -13.785156 14.296875 -12.539062 14.296875 -11 C 14.296875 -9.457031 13.757812 -8.210938 12.6875 -7.265625 C 11.625 -6.328125 10.164062 -5.859375 8.3125 -5.859375 L 5.578125 -5.859375 L 5.578125 -2.28125 L 7.3125 -1.9375 L 7.3125 0 L 0.625 0 L 0.625 -1.9375 L 2.34375 -2.28125 L 2.34375 -13.875 L 0.625 -14.203125 L 0.625 -16.15625 Z M 5.578125 -8.359375 L 8.3125 -8.359375 C 9.21875 -8.359375 9.898438 -8.601562 10.359375 -9.09375 C 10.828125 -9.582031 11.0625 -10.210938 11.0625 -10.984375 C 11.0625 -11.753906 10.828125 -12.394531 10.359375 -12.90625 C 9.898438 -13.414062 9.21875 -13.671875 8.3125 -13.671875 L 5.578125 -13.671875 Z M 5.578125 -8.359375 "/></g></g></g><g fill="#242424" fill-opacity="1"><g transform="translate(201.906019, 293.126601)"><g><path d="M 7.875 -16.15625 C 9.71875 -16.15625 11.160156 -15.734375 12.203125 -14.890625 C 13.242188 -14.054688 13.765625 -12.898438 13.765625 -11.421875 C 13.765625 -10.609375 13.546875 -9.898438 13.109375 -9.296875 C 12.671875 -8.703125 12.03125 -8.21875 11.1875 -7.84375 C 12.144531 -7.5625 12.832031 -7.09375 13.25 -6.4375 C 13.664062 -5.789062 13.875 -4.976562 13.875 -4 L 13.875 -3.1875 C 13.875 -2.832031 13.941406 -2.554688 14.078125 -2.359375 C 14.222656 -2.160156 14.457031 -2.046875 14.78125 -2.015625 L 15.1875 -1.953125 L 15.1875 0 L 13.515625 0 C 12.453125 0 11.707031 -0.28125 11.28125 -0.84375 C 10.851562 -1.414062 10.640625 -2.15625 10.640625 -3.0625 L 10.640625 -3.984375 C 10.640625 -4.765625 10.425781 -5.378906 10 -5.828125 C 9.582031 -6.273438 8.992188 -6.507812 8.234375 -6.53125 L 5.578125 -6.53125 L 5.578125 -2.28125 L 7.3125 -1.9375 L 7.3125 0 L 0.625 0 L 0.625 -1.9375 L 2.34375 -2.28125 L 2.34375 -13.875 L 0.625 -14.203125 L 0.625 -16.15625 Z M 5.578125 -9.03125 L 7.828125 -9.03125 C 8.734375 -9.03125 9.410156 -9.222656 9.859375 -9.609375 C 10.304688 -9.992188 10.53125 -10.550781 10.53125 -11.28125 C 10.53125 -12 10.304688 -12.578125 9.859375 -13.015625 C 9.410156 -13.453125 8.75 -13.671875 7.875 -13.671875 L 5.578125 -13.671875 Z M 5.578125 -9.03125 "/></g></g></g><g fill="#242424" fill-opacity="1"><g transform="translate(222.075931, 293.126601)"><g><path d="M 15.390625 -7.953125 C 15.390625 -5.585938 14.710938 -3.628906 13.359375 -2.078125 C 12.003906 -0.535156 10.234375 0.234375 8.046875 0.234375 C 5.859375 0.234375 4.09375 -0.535156 2.75 -2.078125 C 1.414062 -3.628906 0.75 -5.585938 0.75 -7.953125 L 0.75 -8.203125 C 0.75 -10.554688 1.414062 -12.507812 2.75 -14.0625 C 4.09375 -15.613281 5.851562 -16.390625 8.03125 -16.390625 C 10.226562 -16.390625 12.003906 -15.613281 13.359375 -14.0625 C 14.710938 -12.507812 15.390625 -10.554688 15.390625 -8.203125 Z M 12.171875 -8.21875 C 12.171875 -9.894531 11.820312 -11.253906 11.125 -12.296875 C 10.425781 -13.335938 9.394531 -13.859375 8.03125 -13.859375 C 6.675781 -13.859375 5.660156 -13.335938 4.984375 -12.296875 C 4.316406 -11.265625 3.984375 -9.90625 3.984375 -8.21875 L 3.984375 -7.953125 C 3.984375 -6.253906 4.320312 -4.882812 5 -3.84375 C 5.675781 -2.800781 6.691406 -2.28125 8.046875 -2.28125 C 9.421875 -2.28125 10.453125 -2.800781 11.140625 -3.84375 C 11.828125 -4.882812 12.171875 -6.253906 12.171875 -7.953125 Z M 12.171875 -8.21875 "/></g></g></g><g fill="#242424" fill-opacity="1"><g transform="translate(242.689642, 293.126601)"><g><path d="M 7.890625 -16.15625 C 9.867188 -16.15625 11.5 -15.523438 12.78125 -14.265625 C 14.0625 -13.003906 14.703125 -11.382812 14.703125 -9.40625 L 14.703125 -6.734375 C 14.703125 -4.753906 14.0625 -3.132812 12.78125 -1.875 C 11.5 -0.625 9.867188 0 7.890625 0 L 0.625 0 L 0.625 -1.9375 L 2.34375 -2.28125 L 2.34375 -13.875 L 0.625 -14.203125 L 0.625 -16.15625 Z M 5.578125 -13.671875 L 5.578125 -2.484375 L 7.71875 -2.484375 C 8.882812 -2.484375 9.796875 -2.875 10.453125 -3.65625 C 11.109375 -4.445312 11.4375 -5.472656 11.4375 -6.734375 L 11.4375 -9.4375 C 11.4375 -10.6875 11.109375 -11.703125 10.453125 -12.484375 C 9.796875 -13.273438 8.882812 -13.671875 7.71875 -13.671875 Z M 5.578125 -13.671875 "/></g></g></g><g fill="#242424" fill-opacity="1"><g transform="translate(262.892839, 293.126601)"><g><path d="M 7.125 -16.15625 L 7.125 -14.203125 L 5.390625 -13.875 L 5.390625 -5.4375 C 5.390625 -4.375 5.675781 -3.578125 6.25 -3.046875 C 6.820312 -2.515625 7.609375 -2.25 8.609375 -2.25 C 9.628906 -2.25 10.425781 -2.507812 11 -3.03125 C 11.570312 -3.5625 11.859375 -4.363281 11.859375 -5.4375 L 11.859375 -13.875 L 10.140625 -14.203125 L 10.140625 -16.15625 L 16.84375 -16.15625 L 16.84375 -14.203125 L 15.109375 -13.875 L 15.109375 -5.4375 C 15.109375 -3.625 14.507812 -2.222656 13.3125 -1.234375 C 12.113281 -0.253906 10.546875 0.234375 8.609375 0.234375 C 6.679688 0.234375 5.125 -0.253906 3.9375 -1.234375 C 2.75 -2.222656 2.15625 -3.625 2.15625 -5.4375 L 2.15625 -13.875 L 0.4375 -14.203125 L 0.4375 -16.15625 Z M 7.125 -16.15625 "/></g></g></g><g fill="#242424" fill-opacity="1"><g transform="translate(284.604955, 293.126601)"><g><path d="M 13.859375 -10.71875 L 11.453125 -10.71875 L 11.125 -12.859375 C 10.800781 -13.179688 10.394531 -13.429688 9.90625 -13.609375 C 9.425781 -13.796875 8.859375 -13.890625 8.203125 -13.890625 C 6.796875 -13.890625 5.710938 -13.378906 4.953125 -12.359375 C 4.191406 -11.335938 3.8125 -10.007812 3.8125 -8.375 L 3.8125 -7.796875 C 3.8125 -6.160156 4.1875 -4.828125 4.9375 -3.796875 C 5.695312 -2.765625 6.765625 -2.25 8.140625 -2.25 C 8.785156 -2.25 9.367188 -2.34375 9.890625 -2.53125 C 10.421875 -2.71875 10.832031 -2.96875 11.125 -3.28125 L 11.453125 -5.4375 L 13.859375 -5.4375 L 13.859375 -2.25 C 13.210938 -1.488281 12.382812 -0.882812 11.375 -0.4375 C 10.363281 0.0078125 9.234375 0.234375 7.984375 0.234375 C 5.816406 0.234375 4.039062 -0.515625 2.65625 -2.015625 C 1.269531 -3.523438 0.578125 -5.453125 0.578125 -7.796875 L 0.578125 -8.34375 C 0.578125 -10.6875 1.265625 -12.613281 2.640625 -14.125 C 4.015625 -15.632812 5.796875 -16.390625 7.984375 -16.390625 C 9.234375 -16.390625 10.359375 -16.160156 11.359375 -15.703125 C 12.367188 -15.253906 13.203125 -14.65625 13.859375 -13.90625 Z M 13.859375 -10.71875 "/></g></g></g><g fill="#242424" fill-opacity="1"><g transform="translate(303.876172, 293.126601)"><g><path d="M 14.859375 -16.15625 L 14.859375 -11.859375 L 12.359375 -11.859375 L 12.234375 -13.671875 L 9.265625 -13.671875 L 9.265625 -2.28125 L 10.984375 -1.9375 L 10.984375 0 L 4.28125 0 L 4.28125 -1.9375 L 6.015625 -2.28125 L 6.015625 -13.671875 L 3.046875 -13.671875 L 2.921875 -11.859375 L 0.4375 -11.859375 L 0.4375 -16.15625 Z M 14.859375 -16.15625 "/></g></g></g><g fill="#242424" fill-opacity="1"><g transform="translate(323.702139, 293.126601)"><g><path d="M 12.90625 -11 L 10.46875 -11 L 10.046875 -13.21875 C 9.765625 -13.394531 9.351562 -13.550781 8.8125 -13.6875 C 8.269531 -13.820312 7.695312 -13.890625 7.09375 -13.890625 C 6.207031 -13.890625 5.519531 -13.703125 5.03125 -13.328125 C 4.550781 -12.953125 4.3125 -12.46875 4.3125 -11.875 C 4.3125 -11.332031 4.5625 -10.882812 5.0625 -10.53125 C 5.570312 -10.175781 6.445312 -9.800781 7.6875 -9.40625 C 9.476562 -8.914062 10.832031 -8.265625 11.75 -7.453125 C 12.664062 -6.640625 13.125 -5.566406 13.125 -4.234375 C 13.125 -2.859375 12.578125 -1.769531 11.484375 -0.96875 C 10.390625 -0.164062 8.945312 0.234375 7.15625 0.234375 C 5.875 0.234375 4.71875 0.03125 3.6875 -0.375 C 2.65625 -0.78125 1.796875 -1.34375 1.109375 -2.0625 L 1.109375 -5.4375 L 3.625 -5.4375 L 3.96875 -3.140625 C 4.289062 -2.867188 4.726562 -2.644531 5.28125 -2.46875 C 5.84375 -2.300781 6.46875 -2.21875 7.15625 -2.21875 C 8.039062 -2.21875 8.710938 -2.398438 9.171875 -2.765625 C 9.640625 -3.128906 9.875 -3.613281 9.875 -4.21875 C 9.875 -4.84375 9.65625 -5.34375 9.21875 -5.71875 C 8.78125 -6.09375 8.007812 -6.445312 6.90625 -6.78125 C 4.988281 -7.332031 3.535156 -7.988281 2.546875 -8.75 C 1.566406 -9.519531 1.078125 -10.566406 1.078125 -11.890625 C 1.078125 -13.203125 1.628906 -14.269531 2.734375 -15.09375 C 3.847656 -15.925781 5.242188 -16.359375 6.921875 -16.390625 C 8.171875 -16.390625 9.304688 -16.195312 10.328125 -15.8125 C 11.347656 -15.4375 12.207031 -14.9375 12.90625 -14.3125 Z M 12.90625 -11 "/></g></g></g></svg>