<svg xmlns="http://www.w3.org/2000/svg" xmlns:xlink="http://www.w3.org/1999/xlink" width="500" zoomAndPan="magnify" viewBox="0 0 375 74.999997" height="100" preserveAspectRatio="xMidYMid meet" version="1.0"><defs><g/></defs><g fill="#ffffff" fill-opacity="1"><g transform="translate(43.1061, 43.04493)"><g><path d="M 1.09375 0 L 1.09375 -3.4375 L 4.140625 -4.015625 L 4.140625 -24.515625 L 1.09375 -25.09375 L 1.09375 -28.546875 L 12.921875 -28.546875 L 12.921875 -25.09375 L 9.859375 -24.515625 L 9.859375 -4.390625 L 17.921875 -4.390625 L 18.203125 -7.984375 L 22.5625 -7.984375 L 22.5625 0 Z M 1.09375 0 "/></g></g></g><g fill="#ffffff" fill-opacity="1"><g transform="translate(69.920082, 43.04493)"><g><path d="M 27.203125 -14.0625 C 27.203125 -9.875 26.003906 -6.414062 23.609375 -3.6875 C 21.210938 -0.957031 18.082031 0.40625 14.21875 0.40625 C 10.363281 0.40625 7.25 -0.957031 4.875 -3.6875 C 2.5 -6.414062 1.3125 -9.875 1.3125 -14.0625 L 1.3125 -14.484375 C 1.3125 -18.640625 2.492188 -22.085938 4.859375 -24.828125 C 7.222656 -27.578125 10.335938 -28.953125 14.203125 -28.953125 C 18.066406 -28.953125 21.195312 -27.578125 23.59375 -24.828125 C 26 -22.085938 27.203125 -18.640625 27.203125 -14.484375 Z M 21.484375 -14.53125 C 21.484375 -17.476562 20.867188 -19.875 19.640625 -21.71875 C 18.410156 -23.5625 16.597656 -24.484375 14.203125 -24.484375 C 11.796875 -24.484375 10 -23.566406 8.8125 -21.734375 C 7.632812 -19.910156 7.046875 -17.507812 7.046875 -14.53125 L 7.046875 -14.0625 C 7.046875 -11.050781 7.640625 -8.628906 8.828125 -6.796875 C 10.023438 -4.960938 11.820312 -4.046875 14.21875 -4.046875 C 16.632812 -4.046875 18.445312 -4.960938 19.65625 -6.796875 C 20.875 -8.628906 21.484375 -11.050781 21.484375 -14.0625 Z M 21.484375 -14.53125 "/></g></g></g><g fill="#ffffff" fill-opacity="1"><g transform="translate(101.595177, 43.04493)"><g><path d="M 24.484375 -18.921875 L 20.234375 -18.921875 L 19.640625 -22.71875 C 19.078125 -23.28125 18.367188 -23.722656 17.515625 -24.046875 C 16.660156 -24.378906 15.648438 -24.546875 14.484375 -24.546875 C 12.003906 -24.546875 10.09375 -23.644531 8.75 -21.84375 C 7.414062 -20.039062 6.75 -17.6875 6.75 -14.78125 L 6.75 -13.78125 C 6.75 -10.882812 7.414062 -8.523438 8.75 -6.703125 C 10.082031 -4.890625 11.960938 -3.984375 14.390625 -3.984375 C 15.515625 -3.984375 16.539062 -4.144531 17.46875 -4.46875 C 18.40625 -4.789062 19.128906 -5.234375 19.640625 -5.796875 L 20.234375 -9.609375 L 24.484375 -9.609375 L 24.484375 -3.953125 C 23.335938 -2.617188 21.867188 -1.554688 20.078125 -0.765625 C 18.296875 0.015625 16.300781 0.40625 14.09375 0.40625 C 10.269531 0.40625 7.132812 -0.914062 4.6875 -3.5625 C 2.238281 -6.21875 1.015625 -9.625 1.015625 -13.78125 L 1.015625 -14.75 C 1.015625 -18.882812 2.226562 -22.285156 4.65625 -24.953125 C 7.09375 -27.617188 10.238281 -28.953125 14.09375 -28.953125 C 16.300781 -28.953125 18.296875 -28.550781 20.078125 -27.75 C 21.859375 -26.945312 23.328125 -25.882812 24.484375 -24.5625 Z M 24.484375 -18.921875 "/></g></g></g><g fill="#ffffff" fill-opacity="1"><g transform="translate(130.898526, 43.04493)"><g><path d="M 0.796875 -3.4375 L 2.84375 -3.71875 L 11.53125 -28.546875 L 17.390625 -28.546875 L 26.015625 -3.71875 L 28.0625 -3.4375 L 28.0625 0 L 18.328125 0 L 18.328125 -3.4375 L 20.3125 -3.78125 L 19.0625 -7.703125 L 9.796875 -7.703125 L 8.546875 -3.78125 L 10.53125 -3.4375 L 10.53125 0 L 0.796875 0 Z M 11.15625 -11.921875 L 17.703125 -11.921875 L 14.484375 -21.984375 L 14.375 -21.984375 Z M 11.15625 -11.921875 "/></g></g></g><g fill="#ffffff" fill-opacity="1"><g transform="translate(163.024453, 43.04493)"><g><path d="M 1.09375 0 L 1.09375 -3.4375 L 4.140625 -4.015625 L 4.140625 -24.515625 L 1.09375 -25.09375 L 1.09375 -28.546875 L 12.921875 -28.546875 L 12.921875 -25.09375 L 9.859375 -24.515625 L 9.859375 -4.390625 L 17.921875 -4.390625 L 18.203125 -7.984375 L 22.5625 -7.984375 L 22.5625 0 Z M 1.09375 0 "/></g></g></g><g fill="#ffffff" fill-opacity="1"><g transform="translate(189.838433, 43.04493)"><g/></g></g><g fill="#ffffff" fill-opacity="1"><g transform="translate(202.970733, 43.04493)"><g><path d="M 1.09375 -3.4375 L 4.140625 -4.015625 L 4.140625 -24.515625 L 1.09375 -25.09375 L 1.09375 -28.546875 L 23.828125 -28.546875 L 23.828125 -20.71875 L 19.4375 -20.71875 L 19.171875 -24.140625 L 9.859375 -24.140625 L 9.859375 -16.28125 L 19.859375 -16.28125 L 19.859375 -11.859375 L 9.859375 -11.859375 L 9.859375 -4.015625 L 12.921875 -3.4375 L 12.921875 0 L 1.09375 0 Z M 1.09375 -3.4375 "/></g></g></g><g fill="#ffffff" fill-opacity="1"><g transform="translate(231.058808, 43.04493)"><g><path d="M 0.796875 -3.4375 L 2.84375 -3.71875 L 11.53125 -28.546875 L 17.390625 -28.546875 L 26.015625 -3.71875 L 28.0625 -3.4375 L 28.0625 0 L 18.328125 0 L 18.328125 -3.4375 L 20.3125 -3.78125 L 19.0625 -7.703125 L 9.796875 -7.703125 L 8.546875 -3.78125 L 10.53125 -3.4375 L 10.53125 0 L 0.796875 0 Z M 11.15625 -11.921875 L 17.703125 -11.921875 L 14.484375 -21.984375 L 14.375 -21.984375 Z M 11.15625 -11.921875 "/></g></g></g><g fill="#ffffff" fill-opacity="1"><g transform="translate(263.184735, 43.04493)"><g><path d="M 13.921875 -28.546875 C 17.160156 -28.546875 19.703125 -27.800781 21.546875 -26.3125 C 23.390625 -24.832031 24.3125 -22.785156 24.3125 -20.171875 C 24.3125 -18.734375 23.925781 -17.484375 23.15625 -16.421875 C 22.382812 -15.367188 21.253906 -14.515625 19.765625 -13.859375 C 21.453125 -13.367188 22.664062 -12.539062 23.40625 -11.375 C 24.144531 -10.21875 24.515625 -8.785156 24.515625 -7.078125 L 24.515625 -5.625 C 24.515625 -5 24.632812 -4.507812 24.875 -4.15625 C 25.125 -3.8125 25.539062 -3.609375 26.125 -3.546875 L 26.828125 -3.453125 L 26.828125 0 L 23.859375 0 C 21.992188 0 20.679688 -0.5 19.921875 -1.5 C 19.160156 -2.507812 18.78125 -3.8125 18.78125 -5.40625 L 18.78125 -7.046875 C 18.78125 -8.429688 18.410156 -9.515625 17.671875 -10.296875 C 16.929688 -11.085938 15.890625 -11.503906 14.546875 -11.546875 L 9.859375 -11.546875 L 9.859375 -4.015625 L 12.921875 -3.4375 L 12.921875 0 L 1.09375 0 L 1.09375 -3.4375 L 4.140625 -4.015625 L 4.140625 -24.515625 L 1.09375 -25.09375 L 1.09375 -28.546875 Z M 9.859375 -15.953125 L 13.828125 -15.953125 C 15.421875 -15.953125 16.613281 -16.289062 17.40625 -16.96875 C 18.207031 -17.65625 18.609375 -18.640625 18.609375 -19.921875 C 18.609375 -21.203125 18.210938 -22.222656 17.421875 -22.984375 C 16.628906 -23.753906 15.460938 -24.140625 13.921875 -24.140625 L 9.859375 -24.140625 Z M 9.859375 -15.953125 "/></g></g></g><g fill="#ffffff" fill-opacity="1"><g transform="translate(294.075786, 43.04493)"><g><path d="M 28.640625 -21.125 L 28.53125 -21.140625 L 20.875 0 L 17.03125 0 L 9.4375 -21.0625 L 9.3125 -21.03125 L 9.859375 -8.515625 L 9.859375 -4.015625 L 12.921875 -3.4375 L 12.921875 0 L 1.09375 0 L 1.09375 -3.4375 L 4.140625 -4.015625 L 4.140625 -24.515625 L 1.09375 -25.09375 L 1.09375 -28.546875 L 11.609375 -28.546875 L 18.875 -7.515625 L 19 -7.515625 L 26.328125 -28.546875 L 36.875 -28.546875 L 36.875 -25.09375 L 33.828125 -24.515625 L 33.828125 -4.015625 L 36.875 -3.4375 L 36.875 0 L 25.0625 0 L 25.0625 -3.4375 L 28.09375 -4.015625 L 28.09375 -8.515625 Z M 28.640625 -21.125 "/></g></g></g><g fill="#ffffff" fill-opacity="1"><g transform="translate(70.477068, 67.667691)"><g><path d="M 12.015625 -6.203125 C 12.015625 -4.359375 11.484375 -2.832031 10.421875 -1.625 C 9.367188 -0.414062 7.988281 0.1875 6.28125 0.1875 C 4.570312 0.1875 3.191406 -0.414062 2.140625 -1.625 C 1.097656 -2.832031 0.578125 -4.359375 0.578125 -6.203125 L 0.578125 -6.40625 C 0.578125 -8.238281 1.097656 -9.757812 2.140625 -10.96875 C 3.191406 -12.1875 4.566406 -12.796875 6.265625 -12.796875 C 7.972656 -12.796875 9.359375 -12.1875 10.421875 -10.96875 C 11.484375 -9.757812 12.015625 -8.238281 12.015625 -6.40625 Z M 9.484375 -6.421875 C 9.484375 -7.722656 9.210938 -8.78125 8.671875 -9.59375 C 8.128906 -10.40625 7.328125 -10.8125 6.265625 -10.8125 C 5.203125 -10.8125 4.410156 -10.40625 3.890625 -9.59375 C 3.367188 -8.789062 3.109375 -7.734375 3.109375 -6.421875 L 3.109375 -6.203125 C 3.109375 -4.878906 3.367188 -3.8125 3.890625 -3 C 4.421875 -2.1875 5.21875 -1.78125 6.28125 -1.78125 C 7.34375 -1.78125 8.140625 -2.1875 8.671875 -3 C 9.210938 -3.8125 9.484375 -4.878906 9.484375 -6.203125 Z M 9.484375 -6.421875 "/></g></g></g><g fill="#ffffff" fill-opacity="1"><g transform="translate(86.558532, 67.667691)"><g><path d="M 6.140625 -12.609375 C 7.578125 -12.609375 8.703125 -12.28125 9.515625 -11.625 C 10.328125 -10.96875 10.734375 -10.0625 10.734375 -8.90625 C 10.734375 -8.269531 10.5625 -7.71875 10.21875 -7.25 C 9.882812 -6.789062 9.390625 -6.414062 8.734375 -6.125 C 9.472656 -5.90625 10.003906 -5.539062 10.328125 -5.03125 C 10.660156 -4.519531 10.828125 -3.882812 10.828125 -3.125 L 10.828125 -2.484375 C 10.828125 -2.203125 10.878906 -1.984375 10.984375 -1.828125 C 11.097656 -1.679688 11.28125 -1.59375 11.53125 -1.5625 L 11.84375 -1.53125 L 11.84375 0 L 10.53125 0 C 9.707031 0 9.128906 -0.21875 8.796875 -0.65625 C 8.460938 -1.101562 8.296875 -1.679688 8.296875 -2.390625 L 8.296875 -3.109375 C 8.296875 -3.722656 8.128906 -4.203125 7.796875 -4.546875 C 7.472656 -4.898438 7.015625 -5.082031 6.421875 -5.09375 L 4.359375 -5.09375 L 4.359375 -1.78125 L 5.703125 -1.515625 L 5.703125 0 L 0.484375 0 L 0.484375 -1.515625 L 1.828125 -1.78125 L 1.828125 -10.828125 L 0.484375 -11.078125 L 0.484375 -12.609375 Z M 4.359375 -7.046875 L 6.109375 -7.046875 C 6.804688 -7.046875 7.332031 -7.195312 7.6875 -7.5 C 8.039062 -7.800781 8.21875 -8.234375 8.21875 -8.796875 C 8.21875 -9.359375 8.039062 -9.804688 7.6875 -10.140625 C 7.34375 -10.484375 6.828125 -10.65625 6.140625 -10.65625 L 4.359375 -10.65625 Z M 4.359375 -7.046875 "/></g></g></g><g fill="#ffffff" fill-opacity="1"><g transform="translate(102.293772, 67.667691)"><g><path d="M 10.9375 -1.40625 C 10.53125 -1 9.929688 -0.628906 9.140625 -0.296875 C 8.359375 0.0234375 7.367188 0.1875 6.171875 0.1875 C 4.460938 0.1875 3.070312 -0.378906 2 -1.515625 C 0.9375 -2.660156 0.40625 -4.144531 0.40625 -5.96875 L 0.40625 -6.40625 C 0.40625 -8.289062 0.929688 -9.828125 1.984375 -11.015625 C 3.035156 -12.203125 4.410156 -12.796875 6.109375 -12.796875 C 7.097656 -12.796875 8 -12.632812 8.8125 -12.3125 C 9.632812 -12 10.316406 -11.578125 10.859375 -11.046875 L 10.859375 -8.5 L 8.984375 -8.5 L 8.640625 -10.1875 C 8.398438 -10.382812 8.09375 -10.539062 7.71875 -10.65625 C 7.34375 -10.78125 6.910156 -10.84375 6.421875 -10.84375 C 5.316406 -10.84375 4.457031 -10.4375 3.84375 -9.625 C 3.226562 -8.8125 2.921875 -7.742188 2.921875 -6.421875 L 2.921875 -5.96875 C 2.921875 -4.6875 3.222656 -3.664062 3.828125 -2.90625 C 4.429688 -2.144531 5.296875 -1.765625 6.421875 -1.765625 C 6.929688 -1.765625 7.34375 -1.804688 7.65625 -1.890625 C 7.96875 -1.972656 8.21875 -2.070312 8.40625 -2.1875 L 8.40625 -4.328125 L 6.59375 -4.46875 L 6.59375 -6.25 L 10.9375 -6.25 Z M 10.9375 -1.40625 "/></g></g></g><g fill="#ffffff" fill-opacity="1"><g transform="translate(117.552954, 67.667691)"><g><path d="M 0.359375 -1.515625 L 1.25 -1.640625 L 5.09375 -12.609375 L 7.6875 -12.609375 L 11.484375 -1.640625 L 12.390625 -1.515625 L 12.390625 0 L 8.09375 0 L 8.09375 -1.515625 L 8.96875 -1.671875 L 8.421875 -3.40625 L 4.328125 -3.40625 L 3.78125 -1.671875 L 4.65625 -1.515625 L 4.65625 0 L 0.359375 0 Z M 4.921875 -5.265625 L 7.8125 -5.265625 L 6.40625 -9.703125 L 6.34375 -9.703125 Z M 4.921875 -5.265625 "/></g></g></g><g fill="#ffffff" fill-opacity="1"><g transform="translate(133.833498, 67.667691)"><g><path d="M 13.375 -12.609375 L 13.375 -11.078125 L 12.015625 -10.828125 L 12.015625 0 L 9.5 0 L 4.40625 -8.484375 L 4.359375 -8.484375 L 4.359375 -1.78125 L 5.703125 -1.515625 L 5.703125 0 L 0.484375 0 L 0.484375 -1.515625 L 1.828125 -1.78125 L 1.828125 -10.828125 L 0.484375 -11.078125 L 0.484375 -12.609375 L 4.359375 -12.609375 L 9.453125 -4.125 L 9.5 -4.125 L 9.5 -10.828125 L 8.15625 -11.078125 L 8.15625 -12.609375 Z M 13.375 -12.609375 "/></g></g></g><g fill="#ffffff" fill-opacity="1"><g transform="translate(151.074812, 67.667691)"><g><path d="M 0.46875 -11.078125 L 0.46875 -12.609375 L 5.703125 -12.609375 L 5.703125 -11.078125 L 4.34375 -10.828125 L 4.34375 -1.78125 L 5.703125 -1.515625 L 5.703125 0 L 0.46875 0 L 0.46875 -1.515625 L 1.828125 -1.78125 L 1.828125 -10.828125 Z M 0.46875 -11.078125 "/></g></g></g><g fill="#ffffff" fill-opacity="1"><g transform="translate(160.79442, 67.667691)"><g><path d="M 10.8125 -8.359375 L 8.9375 -8.359375 L 8.671875 -10.03125 C 8.421875 -10.28125 8.109375 -10.476562 7.734375 -10.625 C 7.359375 -10.769531 6.914062 -10.84375 6.40625 -10.84375 C 5.300781 -10.84375 4.453125 -10.441406 3.859375 -9.640625 C 3.273438 -8.847656 2.984375 -7.8125 2.984375 -6.53125 L 2.984375 -6.09375 C 2.984375 -4.8125 3.273438 -3.769531 3.859375 -2.96875 C 4.453125 -2.164062 5.285156 -1.765625 6.359375 -1.765625 C 6.847656 -1.765625 7.300781 -1.832031 7.71875 -1.96875 C 8.132812 -2.113281 8.453125 -2.3125 8.671875 -2.5625 L 8.9375 -4.25 L 10.8125 -4.25 L 10.8125 -1.75 C 10.300781 -1.15625 9.648438 -0.679688 8.859375 -0.328125 C 8.078125 0.015625 7.195312 0.1875 6.21875 0.1875 C 4.53125 0.1875 3.144531 -0.394531 2.0625 -1.5625 C 0.988281 -2.738281 0.453125 -4.25 0.453125 -6.09375 L 0.453125 -6.515625 C 0.453125 -8.335938 0.988281 -9.835938 2.0625 -11.015625 C 3.132812 -12.203125 4.519531 -12.796875 6.21875 -12.796875 C 7.195312 -12.796875 8.078125 -12.613281 8.859375 -12.25 C 9.648438 -11.894531 10.300781 -11.425781 10.8125 -10.84375 Z M 10.8125 -8.359375 "/></g></g></g><g fill="#ffffff" fill-opacity="1"><g transform="translate(175.82856, 67.667691)"><g/></g></g><g fill="#ffffff" fill-opacity="1"><g transform="translate(183.72184, 67.667691)"><g><path d="M 6.484375 -12.609375 C 7.929688 -12.609375 9.070312 -12.234375 9.90625 -11.484375 C 10.738281 -10.742188 11.15625 -9.773438 11.15625 -8.578125 C 11.15625 -7.367188 10.738281 -6.398438 9.90625 -5.671875 C 9.070312 -4.941406 7.929688 -4.578125 6.484375 -4.578125 L 4.359375 -4.578125 L 4.359375 -1.78125 L 5.703125 -1.515625 L 5.703125 0 L 0.484375 0 L 0.484375 -1.515625 L 1.828125 -1.78125 L 1.828125 -10.828125 L 0.484375 -11.078125 L 0.484375 -12.609375 Z M 4.359375 -6.515625 L 6.484375 -6.515625 C 7.191406 -6.515625 7.722656 -6.707031 8.078125 -7.09375 C 8.441406 -7.476562 8.625 -7.96875 8.625 -8.5625 C 8.625 -9.164062 8.441406 -9.664062 8.078125 -10.0625 C 7.722656 -10.457031 7.191406 -10.65625 6.484375 -10.65625 L 4.359375 -10.65625 Z M 4.359375 -6.515625 "/></g></g></g><g fill="#ffffff" fill-opacity="1"><g transform="translate(198.738668, 67.667691)"><g><path d="M 6.140625 -12.609375 C 7.578125 -12.609375 8.703125 -12.28125 9.515625 -11.625 C 10.328125 -10.96875 10.734375 -10.0625 10.734375 -8.90625 C 10.734375 -8.269531 10.5625 -7.71875 10.21875 -7.25 C 9.882812 -6.789062 9.390625 -6.414062 8.734375 -6.125 C 9.472656 -5.90625 10.003906 -5.539062 10.328125 -5.03125 C 10.660156 -4.519531 10.828125 -3.882812 10.828125 -3.125 L 10.828125 -2.484375 C 10.828125 -2.203125 10.878906 -1.984375 10.984375 -1.828125 C 11.097656 -1.679688 11.28125 -1.59375 11.53125 -1.5625 L 11.84375 -1.53125 L 11.84375 0 L 10.53125 0 C 9.707031 0 9.128906 -0.21875 8.796875 -0.65625 C 8.460938 -1.101562 8.296875 -1.679688 8.296875 -2.390625 L 8.296875 -3.109375 C 8.296875 -3.722656 8.128906 -4.203125 7.796875 -4.546875 C 7.472656 -4.898438 7.015625 -5.082031 6.421875 -5.09375 L 4.359375 -5.09375 L 4.359375 -1.78125 L 5.703125 -1.515625 L 5.703125 0 L 0.484375 0 L 0.484375 -1.515625 L 1.828125 -1.78125 L 1.828125 -10.828125 L 0.484375 -11.078125 L 0.484375 -12.609375 Z M 4.359375 -7.046875 L 6.109375 -7.046875 C 6.804688 -7.046875 7.332031 -7.195312 7.6875 -7.5 C 8.039062 -7.800781 8.21875 -8.234375 8.21875 -8.796875 C 8.21875 -9.359375 8.039062 -9.804688 7.6875 -10.140625 C 7.34375 -10.484375 6.828125 -10.65625 6.140625 -10.65625 L 4.359375 -10.65625 Z M 4.359375 -7.046875 "/></g></g></g><g fill="#ffffff" fill-opacity="1"><g transform="translate(214.473902, 67.667691)"><g><path d="M 12.015625 -6.203125 C 12.015625 -4.359375 11.484375 -2.832031 10.421875 -1.625 C 9.367188 -0.414062 7.988281 0.1875 6.28125 0.1875 C 4.570312 0.1875 3.191406 -0.414062 2.140625 -1.625 C 1.097656 -2.832031 0.578125 -4.359375 0.578125 -6.203125 L 0.578125 -6.40625 C 0.578125 -8.238281 1.097656 -9.757812 2.140625 -10.96875 C 3.191406 -12.1875 4.566406 -12.796875 6.265625 -12.796875 C 7.972656 -12.796875 9.359375 -12.1875 10.421875 -10.96875 C 11.484375 -9.757812 12.015625 -8.238281 12.015625 -6.40625 Z M 9.484375 -6.421875 C 9.484375 -7.722656 9.210938 -8.78125 8.671875 -9.59375 C 8.128906 -10.40625 7.328125 -10.8125 6.265625 -10.8125 C 5.203125 -10.8125 4.410156 -10.40625 3.890625 -9.59375 C 3.367188 -8.789062 3.109375 -7.734375 3.109375 -6.421875 L 3.109375 -6.203125 C 3.109375 -4.878906 3.367188 -3.8125 3.890625 -3 C 4.421875 -2.1875 5.21875 -1.78125 6.28125 -1.78125 C 7.34375 -1.78125 8.140625 -2.1875 8.671875 -3 C 9.210938 -3.8125 9.484375 -4.878906 9.484375 -6.203125 Z M 9.484375 -6.421875 "/></g></g></g><g fill="#ffffff" fill-opacity="1"><g transform="translate(230.555361, 67.667691)"><g><path d="M 6.15625 -12.609375 C 7.695312 -12.609375 8.96875 -12.113281 9.96875 -11.125 C 10.96875 -10.144531 11.46875 -8.882812 11.46875 -7.34375 L 11.46875 -5.25 C 11.46875 -3.707031 10.96875 -2.445312 9.96875 -1.46875 C 8.96875 -0.488281 7.695312 0 6.15625 0 L 0.484375 0 L 0.484375 -1.515625 L 1.828125 -1.78125 L 1.828125 -10.828125 L 0.484375 -11.078125 L 0.484375 -12.609375 Z M 4.359375 -10.65625 L 4.359375 -1.9375 L 6.03125 -1.9375 C 6.9375 -1.9375 7.644531 -2.242188 8.15625 -2.859375 C 8.664062 -3.472656 8.921875 -4.269531 8.921875 -5.25 L 8.921875 -7.359375 C 8.921875 -8.335938 8.664062 -9.128906 8.15625 -9.734375 C 7.644531 -10.347656 6.9375 -10.65625 6.03125 -10.65625 Z M 4.359375 -10.65625 "/></g></g></g><g fill="#ffffff" fill-opacity="1"><g transform="translate(246.316562, 67.667691)"><g><path d="M 5.5625 -12.609375 L 5.5625 -11.078125 L 4.203125 -10.828125 L 4.203125 -4.25 C 4.203125 -3.414062 4.425781 -2.789062 4.875 -2.375 C 5.320312 -1.96875 5.9375 -1.765625 6.71875 -1.765625 C 7.507812 -1.765625 8.128906 -1.96875 8.578125 -2.375 C 9.023438 -2.78125 9.25 -3.40625 9.25 -4.25 L 9.25 -10.828125 L 7.921875 -11.078125 L 7.921875 -12.609375 L 13.140625 -12.609375 L 13.140625 -11.078125 L 11.78125 -10.828125 L 11.78125 -4.25 C 11.78125 -2.832031 11.3125 -1.738281 10.375 -0.96875 C 9.445312 -0.195312 8.226562 0.1875 6.71875 0.1875 C 5.207031 0.1875 3.988281 -0.195312 3.0625 -0.96875 C 2.144531 -1.738281 1.6875 -2.832031 1.6875 -4.25 L 1.6875 -10.828125 L 0.34375 -11.078125 L 0.34375 -12.609375 Z M 5.5625 -12.609375 "/></g></g></g><g fill="#ffffff" fill-opacity="1"><g transform="translate(263.254924, 67.667691)"><g><path d="M 10.8125 -8.359375 L 8.9375 -8.359375 L 8.671875 -10.03125 C 8.421875 -10.28125 8.109375 -10.476562 7.734375 -10.625 C 7.359375 -10.769531 6.914062 -10.84375 6.40625 -10.84375 C 5.300781 -10.84375 4.453125 -10.441406 3.859375 -9.640625 C 3.273438 -8.847656 2.984375 -7.8125 2.984375 -6.53125 L 2.984375 -6.09375 C 2.984375 -4.8125 3.273438 -3.769531 3.859375 -2.96875 C 4.453125 -2.164062 5.285156 -1.765625 6.359375 -1.765625 C 6.847656 -1.765625 7.300781 -1.832031 7.71875 -1.96875 C 8.132812 -2.113281 8.453125 -2.3125 8.671875 -2.5625 L 8.9375 -4.25 L 10.8125 -4.25 L 10.8125 -1.75 C 10.300781 -1.15625 9.648438 -0.679688 8.859375 -0.328125 C 8.078125 0.015625 7.195312 0.1875 6.21875 0.1875 C 4.53125 0.1875 3.144531 -0.394531 2.0625 -1.5625 C 0.988281 -2.738281 0.453125 -4.25 0.453125 -6.09375 L 0.453125 -6.515625 C 0.453125 -8.335938 0.988281 -9.835938 2.0625 -11.015625 C 3.132812 -12.203125 4.519531 -12.796875 6.21875 -12.796875 C 7.195312 -12.796875 8.078125 -12.613281 8.859375 -12.25 C 9.648438 -11.894531 10.300781 -11.425781 10.8125 -10.84375 Z M 10.8125 -8.359375 "/></g></g></g><g fill="#ffffff" fill-opacity="1"><g transform="translate(278.289056, 67.667691)"><g><path d="M 11.59375 -12.609375 L 11.59375 -9.25 L 9.640625 -9.25 L 9.546875 -10.65625 L 7.21875 -10.65625 L 7.21875 -1.78125 L 8.578125 -1.515625 L 8.578125 0 L 3.34375 0 L 3.34375 -1.515625 L 4.6875 -1.78125 L 4.6875 -10.65625 L 2.375 -10.65625 L 2.28125 -9.25 L 0.34375 -9.25 L 0.34375 -12.609375 Z M 11.59375 -12.609375 "/></g></g></g><g fill="#ffffff" fill-opacity="1"><g transform="translate(293.755967, 67.667691)"><g><path d="M 10.0625 -8.578125 L 8.171875 -8.578125 L 7.84375 -10.3125 C 7.613281 -10.445312 7.289062 -10.566406 6.875 -10.671875 C 6.457031 -10.773438 6.007812 -10.828125 5.53125 -10.828125 C 4.84375 -10.828125 4.304688 -10.679688 3.921875 -10.390625 C 3.546875 -10.097656 3.359375 -9.722656 3.359375 -9.265625 C 3.359375 -8.835938 3.554688 -8.484375 3.953125 -8.203125 C 4.347656 -7.929688 5.03125 -7.644531 6 -7.34375 C 7.394531 -6.957031 8.453125 -6.445312 9.171875 -5.8125 C 9.890625 -5.175781 10.25 -4.34375 10.25 -3.3125 C 10.25 -2.226562 9.820312 -1.375 8.96875 -0.75 C 8.113281 -0.125 6.984375 0.1875 5.578125 0.1875 C 4.585938 0.1875 3.6875 0.03125 2.875 -0.28125 C 2.070312 -0.601562 1.398438 -1.046875 0.859375 -1.609375 L 0.859375 -4.25 L 2.828125 -4.25 L 3.09375 -2.453125 C 3.34375 -2.242188 3.6875 -2.070312 4.125 -1.9375 C 4.5625 -1.800781 5.046875 -1.734375 5.578125 -1.734375 C 6.273438 -1.734375 6.800781 -1.875 7.15625 -2.15625 C 7.519531 -2.4375 7.703125 -2.816406 7.703125 -3.296875 C 7.703125 -3.773438 7.53125 -4.160156 7.1875 -4.453125 C 6.84375 -4.753906 6.242188 -5.035156 5.390625 -5.296875 C 3.890625 -5.722656 2.753906 -6.234375 1.984375 -6.828125 C 1.222656 -7.421875 0.84375 -8.238281 0.84375 -9.28125 C 0.84375 -10.300781 1.273438 -11.132812 2.140625 -11.78125 C 3.003906 -12.425781 4.09375 -12.757812 5.40625 -12.78125 C 6.375 -12.78125 7.253906 -12.628906 8.046875 -12.328125 C 8.847656 -12.035156 9.519531 -11.644531 10.0625 -11.15625 Z M 10.0625 -8.578125 "/></g></g></g></svg>