<svg xmlns="http://www.w3.org/2000/svg" xmlns:xlink="http://www.w3.org/1999/xlink" width="500" zoomAndPan="magnify" viewBox="0 0 375 374.999991" height="500" preserveAspectRatio="xMidYMid meet" version="1.0"><defs><g/><clipPath id="c8d7fc0b20"><path d="M 112.5 141 L 185 141 L 185 192 L 112.5 192 Z M 112.5 141 " clip-rule="nonzero"/></clipPath><clipPath id="166457e41d"><path d="M 172 176 L 211 176 L 211 202.960938 L 172 202.960938 Z M 172 176 " clip-rule="nonzero"/></clipPath><clipPath id="a673b281fe"><path d="M 209 151 L 262.5 151 L 262.5 189 L 209 189 Z M 209 151 " clip-rule="nonzero"/></clipPath><clipPath id="21b03c9528"><path d="M 193 185 L 216 185 L 216 202.960938 L 193 202.960938 Z M 193 185 " clip-rule="nonzero"/></clipPath><clipPath id="e193925aa0"><path d="M 190 126.460938 L 214 126.460938 L 214 134 L 190 134 Z M 190 126.460938 " clip-rule="nonzero"/></clipPath></defs><path fill="#242424" d="M 185.839844 162.066406 C 162.789062 164.40625 140.183594 174.957031 124.355469 191.964844 C 124.503906 192.195312 124.769531 192.167969 124.984375 192.226562 C 127.109375 192.792969 129.234375 193.351562 131.359375 193.910156 C 131.898438 194.050781 132.441406 194.195312 132.976562 194.347656 C 133.160156 194.398438 133.308594 194.363281 133.425781 194.210938 C 134.847656 192.574219 136.414062 191.070312 137.988281 189.589844 C 152.289062 175.960938 171.046875 167.59375 190.46875 164.570312 C 190.421875 164.222656 188.863281 163.886719 188.601562 163.554688 C 206.257812 166.988281 220.980469 181.402344 225.183594 198.863281 C 225.277344 199.183594 225.3125 199.207031 225.648438 199.140625 C 227.617188 198.65625 229.585938 198.175781 231.550781 197.667969 C 233.148438 197.246094 234.75 196.804688 236.335938 196.347656 C 236.507812 196.214844 236.367188 196.015625 236.308594 195.855469 C 227.824219 176.105469 207.066406 163.113281 185.839844 162.066406 Z M 185.839844 162.066406 " fill-opacity="1" fill-rule="nonzero"/><path fill="#242424" d="M 204.582031 161.429688 C 205.039062 161.335938 205.539062 161.460938 206.011719 161.445312 C 206.257812 161.425781 206.773438 161.597656 206.753906 161.191406 C 206.730469 159.433594 206.730469 157.671875 206.730469 155.910156 C 206.734375 155.019531 206.378906 154.308594 205.679688 153.765625 C 203.34375 152.175781 197.394531 148.421875 196.808594 148.042969 C 196.636719 147.929688 196.488281 147.910156 196.296875 148.019531 C 193.339844 149.695312 190.390625 151.382812 187.441406 153.074219 C 186.691406 153.574219 185.554688 154.300781 185.53125 155.285156 C 185.566406 157.078125 185.527344 158.988281 185.476562 161.070312 C 185.460938 161.609375 185.464844 161.613281 185.988281 161.59375 C 204.4375 161.070312 222.65625 170.695312 234.089844 184.949219 C 236.4375 187.941406 238.539062 191.136719 240.210938 194.558594 C 240.320312 194.738281 240.371094 195.046875 240.636719 194.96875 C 240.765625 194.929688 240.894531 194.890625 241.019531 194.84375 C 243.226562 194.089844 245.425781 193.3125 247.628906 192.535156 C 248.003906 192.402344 248.011719 192.363281 247.796875 192.050781 C 236.316406 174.335938 216.097656 162.878906 195.121094 161.421875 C 195.984375 161.308594 196.882812 161.421875 197.753906 161.398438 C 197.964844 161.351562 198.480469 161.535156 198.484375 161.207031 C 198.464844 159.53125 198.453125 157.859375 198.5 156.183594 C 198.503906 155.898438 198.546875 155.863281 198.828125 155.867188 C 200.078125 155.886719 201.332031 155.867188 202.582031 155.957031 C 203.144531 155.992188 203.140625 155.976562 203.152344 156.546875 C 203.15625 158.085938 203.230469 159.628906 203.1875 161.164062 C 203.179688 161.390625 202.824219 161.363281 202.804688 161.15625 C 202.703125 159.636719 202.738281 158.109375 202.644531 156.589844 C 202.617188 156.34375 202.3125 156.410156 202.136719 156.390625 C 201.222656 156.375 200.308594 156.359375 199.394531 156.339844 C 199.050781 156.316406 198.914062 156.425781 198.957031 156.816406 C 198.941406 158.273438 198.992188 159.726562 198.847656 161.179688 C 198.828125 161.34375 198.859375 161.390625 199.039062 161.414062 C 202.902344 161.734375 206.691406 162.566406 210.453125 163.480469 C 226.394531 167.566406 241.144531 177.363281 250.210938 191.203125 C 250.277344 191.332031 250.394531 191.484375 250.558594 191.425781 C 250.640625 191.40625 250.71875 191.371094 250.796875 191.34375 C 252.398438 190.753906 253.972656 190.089844 255.609375 189.59375 C 255.910156 189.5 255.578125 189.222656 255.488281 189.082031 C 243.265625 173.390625 224.375 163.167969 204.582031 161.429688 Z M 204.582031 161.429688 " fill-opacity="1" fill-rule="nonzero"/><g clip-path="url(#c8d7fc0b20)"><path fill="#242424" d="M 179.964844 161.441406 C 180.359375 161.289062 180.816406 161.371094 181.191406 161.558594 C 182.152344 162.113281 183.269531 161.863281 184.320312 161.8125 C 184.929688 161.773438 184.914062 161.765625 184.910156 161.144531 C 184.898438 159.148438 184.882812 157.152344 184.867188 155.15625 C 184.863281 154.929688 184.796875 154.875 184.585938 154.929688 C 182.148438 155.503906 179.753906 156.230469 177.335938 156.875 C 176.847656 157.007812 176.839844 157.011719 176.828125 157.527344 C 176.804688 158.59375 176.816406 159.660156 176.761719 160.722656 C 176.699219 161.171875 176.035156 160.832031 175.730469 160.894531 C 174.597656 160.871094 173.464844 160.847656 172.332031 160.84375 C 171.578125 160.839844 171.636719 160.890625 171.636719 160.171875 C 171.621094 154.976562 171.652344 149.785156 171.613281 144.589844 C 171.597656 143.441406 170.605469 142.707031 169.875 141.957031 C 168.816406 140.917969 167.71875 142.433594 167.03125 143.195312 C 166.726562 143.582031 166.554688 144.011719 166.535156 144.5 C 166.46875 147.207031 166.527344 157.96875 166.535156 160.640625 C 166.535156 160.980469 166.515625 161.007812 166.164062 161.039062 C 165.523438 161.089844 164.882812 161.136719 164.242188 161.195312 C 161.507812 161.414062 158.820312 161.976562 156.132812 162.488281 C 155.667969 162.574219 155.617188 162.539062 155.65625 162.019531 C 155.859375 161.324219 156.96875 160.886719 157.621094 160.058594 C 157.640625 160.023438 157.65625 159.988281 157.675781 159.964844 C 157.707031 159.964844 157.738281 159.964844 157.765625 159.964844 C 159.054688 159.964844 160.097656 158.921875 160.097656 157.632812 C 160.097656 156.417969 159.167969 155.421875 157.984375 155.3125 C 157.71875 154.023438 156.582031 153.054688 155.214844 153.054688 C 153.828125 153.054688 152.675781 154.050781 152.433594 155.363281 C 151.203125 155.425781 150.21875 156.441406 150.21875 157.691406 C 150.21875 158.976562 151.265625 160.023438 152.550781 160.023438 C 152.769531 160.023438 152.980469 159.992188 153.179688 159.9375 C 153.253906 159.980469 153.316406 160.050781 153.382812 160.140625 C 153.917969 160.84375 153.96875 160.933594 154.332031 161.378906 C 154.851562 161.847656 154.742188 161.824219 154.824219 162.53125 C 154.839844 162.773438 154.800781 162.824219 154.570312 162.886719 C 149.730469 164.121094 145.050781 165.875 140.558594 168.054688 C 130.015625 173.175781 120.503906 180.398438 112.644531 189.078125 C 112.5625 189.164062 112.40625 189.328125 112.578125 189.394531 C 112.660156 189.417969 112.742188 189.425781 112.824219 189.441406 C 113.554688 189.578125 114.292969 189.699219 115.019531 189.847656 C 116.992188 190.246094 118.957031 190.664062 120.90625 191.171875 C 121.117188 191.226562 121.253906 191.1875 121.398438 191.027344 C 125.492188 186.574219 130.195312 182.691406 135.09375 179.148438 C 148.332031 169.652344 163.96875 163.9375 179.964844 161.441406 Z M 178.53125 158.574219 C 178.546875 158.292969 178.574219 158.253906 178.839844 158.195312 C 180.042969 157.917969 181.253906 157.703125 182.460938 157.464844 C 182.75 157.375 182.84375 157.570312 182.808594 157.832031 C 182.808594 158.324219 182.808594 158.8125 182.808594 159.300781 C 182.796875 159.300781 182.785156 159.300781 182.773438 159.300781 C 182.714844 159.707031 182.9375 161.152344 182.609375 161.308594 C 182.324219 161.4375 182.460938 158.878906 182.398438 158.554688 C 182.382812 158.316406 182.496094 157.9375 182.109375 158.023438 C 181.101562 158.207031 180.09375 158.445312 179.09375 158.679688 C 178.699219 158.703125 178.964844 160.34375 178.894531 160.714844 C 178.921875 160.921875 178.789062 161.367188 178.554688 161.054688 C 178.496094 160.234375 178.550781 159.398438 178.53125 158.574219 Z M 156.0625 159.421875 C 156.074219 159.363281 156.097656 159.316406 156.117188 159.277344 C 156.378906 159.542969 156.703125 159.742188 157.066406 159.855469 C 157.070312 159.890625 157.054688 159.925781 157.015625 159.964844 C 156.734375 160.3125 155.507812 161.777344 155.542969 160.777344 C 155.636719 160.390625 155.972656 159.855469 156.0625 159.421875 Z M 154.78125 160.988281 C 154.382812 160.660156 153.710938 159.972656 153.933594 159.566406 C 154.136719 159.414062 154.316406 159.230469 154.460938 159.023438 C 154.484375 159.042969 154.511719 159.074219 154.535156 159.109375 C 154.863281 159.574219 155.058594 160.082031 155.058594 160.769531 C 155.078125 160.855469 154.984375 161.1875 154.78125 160.988281 Z M 154.78125 160.988281 " fill-opacity="1" fill-rule="nonzero"/></g><path fill="#242424" d="M 204.53125 174.667969 C 204.730469 174.550781 204.515625 174.371094 204.414062 174.269531 C 203.050781 172.917969 201.644531 171.511719 200.011719 170.507812 C 182.226562 175.136719 165.398438 184.898438 153.769531 199.273438 C 153.628906 199.605469 154.390625 199.484375 154.554688 199.582031 C 158.488281 200.339844 162.4375 201.003906 166.40625 201.539062 C 172.234375 194.214844 179.386719 188 187.339844 183.078125 C 192.757812 179.691406 198.527344 176.84375 204.53125 174.667969 Z M 204.53125 174.667969 " fill-opacity="1" fill-rule="nonzero"/><path fill="#242424" d="M 197.714844 168.910156 C 196.316406 167.710938 194.597656 166.90625 193.054688 165.902344 C 192.824219 165.761719 192.582031 165.734375 192.324219 165.792969 C 190.753906 166.125 189.179688 166.441406 187.605469 166.78125 C 168.898438 171.011719 151.125 180.492188 138.234375 194.835938 C 138.035156 195.078125 137.347656 195.566406 137.949219 195.695312 C 141.335938 196.496094 144.695312 197.421875 148.085938 198.222656 C 148.6875 198.4375 148.84375 197.667969 149.21875 197.355469 C 154.097656 191.660156 159.816406 186.71875 166.042969 182.546875 C 175.625 176.113281 186.648438 171.636719 197.714844 168.910156 Z M 197.714844 168.910156 " fill-opacity="1" fill-rule="nonzero"/><g clip-path="url(#166457e41d)"><path fill="#242424" d="M 210.480469 182.742188 C 210.765625 182.601562 210.777344 182.550781 210.628906 182.28125 C 209.484375 180.367188 208.195312 178.539062 206.757812 176.828125 C 206.648438 176.691406 206.511719 176.65625 206.355469 176.726562 C 203.625 177.878906 200.953125 179.136719 198.347656 180.542969 C 188.484375 185.832031 179.433594 192.863281 172.554688 201.742188 C 172.164062 202.210938 172.390625 202.230469 172.925781 202.269531 C 176.414062 202.527344 179.1875 202.742188 182.824219 202.878906 C 183.742188 202.894531 185.097656 202.921875 186.449219 202.953125 C 186.921875 202.980469 187.023438 202.398438 187.324219 202.136719 C 191.585938 196.917969 196.480469 192.242188 201.90625 188.246094 C 204.65625 186.25 207.46875 184.324219 210.480469 182.742188 Z M 210.480469 182.742188 " fill-opacity="1" fill-rule="nonzero"/></g><g clip-path="url(#a673b281fe)"><path fill="#242424" d="M 262.265625 186.929688 C 252.222656 175.464844 238.710938 166.617188 223.65625 163.609375 C 223.433594 163.582031 223.378906 163.511719 223.378906 163.261719 C 223.378906 162.789062 223.40625 162.316406 223.402344 161.84375 C 223.402344 161.570312 223.523438 161.453125 223.765625 161.308594 C 224.738281 160.730469 224.707031 160.71875 225.539062 160.070312 C 225.652344 159.984375 225.757812 159.894531 225.867188 159.8125 C 225.871094 159.8125 225.871094 159.8125 225.875 159.8125 C 227.433594 159.8125 228.691406 158.550781 228.691406 157 C 228.691406 155.445312 227.429688 154.179688 225.875 154.179688 C 225.855469 154.179688 225.839844 154.179688 225.824219 154.183594 C 225.769531 154.140625 225.742188 154.078125 225.742188 153.984375 C 225.695312 153.738281 225.667969 153.480469 225.582031 153.246094 C 224.78125 150.804688 221.132812 150.90625 220.367188 153.164062 C 220.207031 153.472656 220.101562 153.816406 220.066406 154.179688 C 219.914062 154.152344 219.757812 154.140625 219.601562 154.140625 C 218.042969 154.140625 216.785156 155.402344 216.785156 156.957031 C 216.785156 158.511719 218.046875 159.773438 219.601562 159.773438 C 219.875 159.773438 220.140625 159.730469 220.394531 159.660156 C 220.46875 159.71875 220.539062 159.789062 220.617188 159.875 C 221.1875 160.53125 221.515625 160.847656 222.101562 161.527344 C 222.441406 161.847656 222.300781 162.097656 222.226562 162.941406 C 222.171875 163.402344 222.066406 163.242188 221.828125 163.183594 C 218.332031 162.4375 214.769531 162.128906 211.21875 161.808594 C 211.21875 161.816406 211.214844 161.824219 211.214844 161.832031 C 210.777344 161.792969 210.339844 161.777344 209.898438 161.785156 C 209.882812 161.785156 209.863281 161.820312 209.84375 161.839844 C 228.199219 164.339844 245.867188 173.84375 257.121094 188.714844 C 257.296875 188.964844 257.324219 188.960938 257.621094 188.855469 C 258.5625 188.53125 259.511719 188.21875 260.460938 187.921875 C 261.011719 187.75 261.570312 187.621094 262.125 187.472656 C 262.589844 187.339844 262.597656 187.304688 262.265625 186.929688 Z M 223.796875 158.898438 C 224.15625 159.289062 224.621094 159.578125 225.148438 159.71875 C 224.5 160.214844 224.175781 160.429688 223.394531 160.808594 C 223.351562 160.703125 223.441406 159.484375 223.796875 158.898438 Z M 222.550781 160.777344 C 222.332031 161.359375 221.507812 160.015625 221.109375 159.46875 C 221.078125 159.429688 221.058594 159.398438 221.042969 159.371094 C 221.476562 159.113281 221.835938 158.738281 222.074219 158.292969 C 222.558594 159.171875 222.894531 159.753906 222.550781 160.777344 Z M 222.550781 160.777344 " fill-opacity="1" fill-rule="nonzero"/></g><g clip-path="url(#21b03c9528)"><path fill="#242424" d="M 212.519531 185.726562 C 212.335938 185.328125 212.285156 185.320312 211.921875 185.539062 C 204.769531 190.097656 198.304688 195.820312 193.179688 202.589844 C 193.109375 202.679688 192.992188 202.824219 193.019531 202.882812 C 193.09375 203.035156 193.253906 202.910156 193.378906 202.917969 C 195.457031 202.855469 197.714844 202.785156 199.359375 202.734375 C 202.828125 202.496094 205.246094 202.296875 208.464844 201.996094 C 208.914062 202.007812 209.949219 200.15625 210.414062 199.730469 C 211.945312 197.882812 213.5625 196.09375 215.375 194.515625 C 215.585938 194.363281 215.539062 194.136719 215.472656 193.921875 C 214.691406 191.121094 213.773438 188.355469 212.519531 185.726562 Z M 212.519531 185.726562 " fill-opacity="1" fill-rule="nonzero"/></g><g clip-path="url(#e193925aa0)"><path fill="#242424" d="M 190.289062 129.976562 C 194.34375 128.289062 199.1875 129.613281 201.296875 133.597656 C 203.527344 128.671875 207.835938 126.777344 212.976562 129.136719 C 213.105469 129.15625 213.265625 129.316406 213.371094 129.210938 C 209.890625 125.96875 204.039062 125.011719 201.1875 129.554688 C 201.074219 129.699219 200.976562 129.710938 200.847656 129.578125 C 197.703125 126.617188 193.210938 127.175781 190.160156 129.945312 C 190.203125 129.957031 190.253906 129.988281 190.289062 129.976562 Z M 190.289062 129.976562 " fill-opacity="1" fill-rule="nonzero"/></g><path fill="#242424" d="M 211.726562 137.707031 C 211.375 138.210938 211.324219 138.796875 210.957031 138.535156 C 208.085938 136.070312 203.574219 136.921875 201.238281 139.640625 C 204.542969 138.316406 208.355469 138.195312 210.800781 141.195312 C 210.980469 141.308594 211.691406 142.550781 211.796875 142.046875 C 213.535156 136.941406 217.664062 135.929688 222.429688 137.480469 C 219.453125 134.972656 214.300781 134.152344 211.726562 137.707031 Z M 211.726562 137.707031 " fill-opacity="1" fill-rule="nonzero"/><path fill="#242424" d="M 177.511719 155.570312 C 179.730469 154.90625 181.960938 154.292969 184.195312 153.691406 C 184.640625 153.566406 185.046875 153.371094 185.425781 153.109375 C 187.71875 151.484375 190.539062 150.242188 192.824219 148.851562 C 190.347656 149.390625 187.910156 150.066406 185.464844 150.742188 C 184.777344 150.9375 184.15625 151.285156 183.546875 151.652344 C 181.53125 152.988281 179.253906 154.089844 177.367188 155.550781 C 177.417969 155.558594 177.46875 155.582031 177.511719 155.570312 Z M 177.511719 155.570312 " fill-opacity="1" fill-rule="nonzero"/><g fill="#242424" fill-opacity="1"><g transform="translate(67.997963, 244.290687)"><g><path d="M 0.90625 0 L 0.90625 -2.84375 L 3.421875 -3.328125 L 3.421875 -20.28125 L 0.90625 -20.765625 L 0.90625 -23.625 L 10.6875 -23.625 L 10.6875 -20.765625 L 8.15625 -20.28125 L 8.15625 -3.640625 L 14.828125 -3.640625 L 15.0625 -6.609375 L 18.671875 -6.609375 L 18.671875 0 Z M 0.90625 0 "/></g></g></g><g fill="#242424" fill-opacity="1"><g transform="translate(90.189452, 244.290687)"><g><path d="M 22.515625 -11.640625 C 22.515625 -8.171875 21.519531 -5.304688 19.53125 -3.046875 C 17.550781 -0.785156 14.960938 0.34375 11.765625 0.34375 C 8.578125 0.34375 6 -0.785156 4.03125 -3.046875 C 2.070312 -5.304688 1.09375 -8.171875 1.09375 -11.640625 L 1.09375 -12 C 1.09375 -15.4375 2.070312 -18.289062 4.03125 -20.5625 C 5.988281 -22.832031 8.5625 -23.96875 11.75 -23.96875 C 14.945312 -23.96875 17.539062 -22.832031 19.53125 -20.5625 C 21.519531 -18.289062 22.515625 -15.4375 22.515625 -12 Z M 17.78125 -12.03125 C 17.78125 -14.46875 17.269531 -16.445312 16.25 -17.96875 C 15.238281 -19.5 13.738281 -20.265625 11.75 -20.265625 C 9.757812 -20.265625 8.273438 -19.503906 7.296875 -17.984375 C 6.316406 -16.472656 5.828125 -14.488281 5.828125 -12.03125 L 5.828125 -11.640625 C 5.828125 -9.148438 6.320312 -7.144531 7.3125 -5.625 C 8.300781 -4.101562 9.785156 -3.34375 11.765625 -3.34375 C 13.765625 -3.34375 15.265625 -4.101562 16.265625 -5.625 C 17.273438 -7.144531 17.78125 -9.148438 17.78125 -11.640625 Z M 17.78125 -12.03125 "/></g></g></g><g fill="#242424" fill-opacity="1"><g transform="translate(116.403996, 244.290687)"><g><path d="M 20.265625 -15.65625 L 16.75 -15.65625 L 16.265625 -18.8125 C 15.796875 -19.269531 15.207031 -19.632812 14.5 -19.90625 C 13.789062 -20.175781 12.957031 -20.3125 12 -20.3125 C 9.9375 -20.3125 8.347656 -19.566406 7.234375 -18.078125 C 6.128906 -16.585938 5.578125 -14.640625 5.578125 -12.234375 L 5.578125 -11.40625 C 5.578125 -9.007812 6.128906 -7.054688 7.234375 -5.546875 C 8.335938 -4.046875 9.894531 -3.296875 11.90625 -3.296875 C 12.84375 -3.296875 13.695312 -3.429688 14.46875 -3.703125 C 15.238281 -3.972656 15.835938 -4.335938 16.265625 -4.796875 L 16.75 -7.953125 L 20.265625 -7.953125 L 20.265625 -3.28125 C 19.316406 -2.175781 18.101562 -1.296875 16.625 -0.640625 C 15.144531 0.015625 13.492188 0.34375 11.671875 0.34375 C 8.492188 0.34375 5.894531 -0.753906 3.875 -2.953125 C 1.851562 -5.148438 0.84375 -7.96875 0.84375 -11.40625 L 0.84375 -12.203125 C 0.84375 -15.628906 1.847656 -18.445312 3.859375 -20.65625 C 5.867188 -22.863281 8.472656 -23.96875 11.671875 -23.96875 C 13.492188 -23.96875 15.140625 -23.632812 16.609375 -22.96875 C 18.085938 -22.300781 19.304688 -21.421875 20.265625 -20.328125 Z M 20.265625 -15.65625 "/></g></g></g><g fill="#242424" fill-opacity="1"><g transform="translate(140.655685, 244.290687)"><g><path d="M 0.671875 -2.84375 L 2.359375 -3.078125 L 9.546875 -23.625 L 14.390625 -23.625 L 21.53125 -3.078125 L 23.21875 -2.84375 L 23.21875 0 L 15.171875 0 L 15.171875 -2.84375 L 16.8125 -3.125 L 15.765625 -6.375 L 8.109375 -6.375 L 7.078125 -3.125 L 8.71875 -2.84375 L 8.71875 0 L 0.671875 0 Z M 9.234375 -9.859375 L 14.65625 -9.859375 L 12 -18.1875 L 11.890625 -18.1875 Z M 9.234375 -9.859375 "/></g></g></g><g fill="#242424" fill-opacity="1"><g transform="translate(167.243341, 244.290687)"><g><path d="M 0.90625 0 L 0.90625 -2.84375 L 3.421875 -3.328125 L 3.421875 -20.28125 L 0.90625 -20.765625 L 0.90625 -23.625 L 10.6875 -23.625 L 10.6875 -20.765625 L 8.15625 -20.28125 L 8.15625 -3.640625 L 14.828125 -3.640625 L 15.0625 -6.609375 L 18.671875 -6.609375 L 18.671875 0 Z M 0.90625 0 "/></g></g></g><g fill="#242424" fill-opacity="1"><g transform="translate(189.43483, 244.290687)"><g/></g></g><g fill="#242424" fill-opacity="1"><g transform="translate(200.303364, 244.290687)"><g><path d="M 0.90625 -2.84375 L 3.421875 -3.328125 L 3.421875 -20.28125 L 0.90625 -20.765625 L 0.90625 -23.625 L 19.71875 -23.625 L 19.71875 -17.15625 L 16.078125 -17.15625 L 15.875 -19.96875 L 8.15625 -19.96875 L 8.15625 -13.46875 L 16.4375 -13.46875 L 16.4375 -9.8125 L 8.15625 -9.8125 L 8.15625 -3.328125 L 10.6875 -2.84375 L 10.6875 0 L 0.90625 0 Z M 0.90625 -2.84375 "/></g></g></g><g fill="#242424" fill-opacity="1"><g transform="translate(223.549288, 244.290687)"><g><path d="M 0.671875 -2.84375 L 2.359375 -3.078125 L 9.546875 -23.625 L 14.390625 -23.625 L 21.53125 -3.078125 L 23.21875 -2.84375 L 23.21875 0 L 15.171875 0 L 15.171875 -2.84375 L 16.8125 -3.125 L 15.765625 -6.375 L 8.109375 -6.375 L 7.078125 -3.125 L 8.71875 -2.84375 L 8.71875 0 L 0.671875 0 Z M 9.234375 -9.859375 L 14.65625 -9.859375 L 12 -18.1875 L 11.890625 -18.1875 Z M 9.234375 -9.859375 "/></g></g></g><g fill="#242424" fill-opacity="1"><g transform="translate(250.136945, 244.290687)"><g><path d="M 11.515625 -23.625 C 14.203125 -23.625 16.304688 -23.007812 17.828125 -21.78125 C 19.359375 -20.550781 20.125 -18.859375 20.125 -16.703125 C 20.125 -15.503906 19.800781 -14.46875 19.15625 -13.59375 C 18.519531 -12.71875 17.585938 -12.007812 16.359375 -11.46875 C 17.753906 -11.0625 18.753906 -10.378906 19.359375 -9.421875 C 19.972656 -8.460938 20.28125 -7.273438 20.28125 -5.859375 L 20.28125 -4.65625 C 20.28125 -4.132812 20.382812 -3.726562 20.59375 -3.4375 C 20.800781 -3.15625 21.140625 -2.988281 21.609375 -2.9375 L 22.203125 -2.859375 L 22.203125 0 L 19.75 0 C 18.195312 0 17.109375 -0.414062 16.484375 -1.25 C 15.859375 -2.082031 15.546875 -3.160156 15.546875 -4.484375 L 15.546875 -5.828125 C 15.546875 -6.972656 15.238281 -7.875 14.625 -8.53125 C 14.019531 -9.1875 13.160156 -9.53125 12.046875 -9.5625 L 8.15625 -9.5625 L 8.15625 -3.328125 L 10.6875 -2.84375 L 10.6875 0 L 0.90625 0 L 0.90625 -2.84375 L 3.421875 -3.328125 L 3.421875 -20.28125 L 0.90625 -20.765625 L 0.90625 -23.625 Z M 8.15625 -13.203125 L 11.4375 -13.203125 C 12.757812 -13.203125 13.75 -13.484375 14.40625 -14.046875 C 15.070312 -14.609375 15.40625 -15.421875 15.40625 -16.484375 C 15.40625 -17.546875 15.078125 -18.390625 14.421875 -19.015625 C 13.765625 -19.648438 12.796875 -19.96875 11.515625 -19.96875 L 8.15625 -19.96875 Z M 8.15625 -13.203125 "/></g></g></g><g fill="#242424" fill-opacity="1"><g transform="translate(275.702609, 244.290687)"><g><path d="M 23.703125 -17.484375 L 23.609375 -17.5 L 17.28125 0 L 14.109375 0 L 7.8125 -17.421875 L 7.703125 -17.40625 L 8.15625 -7.046875 L 8.15625 -3.328125 L 10.6875 -2.84375 L 10.6875 0 L 0.90625 0 L 0.90625 -2.84375 L 3.421875 -3.328125 L 3.421875 -20.28125 L 0.90625 -20.765625 L 0.90625 -23.625 L 9.609375 -23.625 L 15.625 -6.21875 L 15.71875 -6.21875 L 21.796875 -23.625 L 30.53125 -23.625 L 30.53125 -20.765625 L 28 -20.28125 L 28 -3.328125 L 30.53125 -2.84375 L 30.53125 0 L 20.734375 0 L 20.734375 -2.84375 L 23.25 -3.328125 L 23.25 -7.046875 Z M 23.703125 -17.484375 "/></g></g></g><g fill="#242424" fill-opacity="1"><g transform="translate(90.643203, 266.070993)"><g><path d="M 9.9375 -5.140625 C 9.9375 -3.609375 9.5 -2.34375 8.625 -1.34375 C 7.75 -0.34375 6.601562 0.15625 5.1875 0.15625 C 3.78125 0.15625 2.644531 -0.34375 1.78125 -1.34375 C 0.914062 -2.34375 0.484375 -3.609375 0.484375 -5.140625 L 0.484375 -5.296875 C 0.484375 -6.816406 0.914062 -8.078125 1.78125 -9.078125 C 2.644531 -10.078125 3.78125 -10.578125 5.1875 -10.578125 C 6.601562 -10.578125 7.75 -10.078125 8.625 -9.078125 C 9.5 -8.078125 9.9375 -6.816406 9.9375 -5.296875 Z M 7.859375 -5.3125 C 7.859375 -6.382812 7.628906 -7.257812 7.171875 -7.9375 C 6.722656 -8.613281 6.0625 -8.953125 5.1875 -8.953125 C 4.3125 -8.953125 3.65625 -8.613281 3.21875 -7.9375 C 2.789062 -7.269531 2.578125 -6.394531 2.578125 -5.3125 L 2.578125 -5.140625 C 2.578125 -4.035156 2.796875 -3.144531 3.234375 -2.46875 C 3.671875 -1.800781 4.320312 -1.46875 5.1875 -1.46875 C 6.070312 -1.46875 6.738281 -1.800781 7.1875 -2.46875 C 7.632812 -3.144531 7.859375 -4.035156 7.859375 -5.140625 Z M 7.859375 -5.3125 "/></g></g></g><g fill="#242424" fill-opacity="1"><g transform="translate(103.953407, 266.070993)"><g><path d="M 5.09375 -10.4375 C 6.269531 -10.4375 7.195312 -10.160156 7.875 -9.609375 C 8.550781 -9.066406 8.890625 -8.320312 8.890625 -7.375 C 8.890625 -6.84375 8.742188 -6.382812 8.453125 -6 C 8.171875 -5.613281 7.757812 -5.300781 7.21875 -5.0625 C 7.832031 -4.882812 8.273438 -4.582031 8.546875 -4.15625 C 8.816406 -3.738281 8.953125 -3.21875 8.953125 -2.59375 L 8.953125 -2.0625 C 8.953125 -1.832031 9 -1.648438 9.09375 -1.515625 C 9.1875 -1.390625 9.335938 -1.316406 9.546875 -1.296875 L 9.796875 -1.265625 L 9.796875 0 L 8.71875 0 C 8.03125 0 7.546875 -0.179688 7.265625 -0.546875 C 6.992188 -0.921875 6.859375 -1.398438 6.859375 -1.984375 L 6.859375 -2.578125 C 6.859375 -3.078125 6.722656 -3.472656 6.453125 -3.765625 C 6.179688 -4.054688 5.800781 -4.207031 5.3125 -4.21875 L 3.609375 -4.21875 L 3.609375 -1.46875 L 4.71875 -1.25 L 4.71875 0 L 0.40625 0 L 0.40625 -1.25 L 1.515625 -1.46875 L 1.515625 -8.953125 L 0.40625 -9.171875 L 0.40625 -10.4375 Z M 3.609375 -5.828125 L 5.046875 -5.828125 C 5.628906 -5.828125 6.066406 -5.953125 6.359375 -6.203125 C 6.648438 -6.453125 6.796875 -6.8125 6.796875 -7.28125 C 6.796875 -7.75 6.648438 -8.117188 6.359375 -8.390625 C 6.078125 -8.671875 5.65625 -8.8125 5.09375 -8.8125 L 3.609375 -8.8125 Z M 3.609375 -5.828125 "/></g></g></g><g fill="#242424" fill-opacity="1"><g transform="translate(116.97705, 266.070993)"><g><path d="M 9.046875 -1.15625 C 8.710938 -0.820312 8.21875 -0.519531 7.5625 -0.25 C 6.914062 0.0195312 6.09375 0.15625 5.09375 0.15625 C 3.6875 0.15625 2.539062 -0.3125 1.65625 -1.25 C 0.78125 -2.195312 0.34375 -3.425781 0.34375 -4.9375 L 0.34375 -5.296875 C 0.34375 -6.859375 0.773438 -8.128906 1.640625 -9.109375 C 2.515625 -10.085938 3.65625 -10.578125 5.0625 -10.578125 C 5.875 -10.578125 6.617188 -10.445312 7.296875 -10.1875 C 7.972656 -9.925781 8.535156 -9.578125 8.984375 -9.140625 L 8.984375 -7.03125 L 7.4375 -7.03125 L 7.140625 -8.4375 C 6.953125 -8.59375 6.703125 -8.71875 6.390625 -8.8125 C 6.078125 -8.914062 5.71875 -8.96875 5.3125 -8.96875 C 4.394531 -8.96875 3.679688 -8.628906 3.171875 -7.953125 C 2.671875 -7.285156 2.421875 -6.40625 2.421875 -5.3125 L 2.421875 -4.9375 C 2.421875 -3.882812 2.664062 -3.039062 3.15625 -2.40625 C 3.65625 -1.769531 4.375 -1.453125 5.3125 -1.453125 C 5.738281 -1.453125 6.082031 -1.488281 6.34375 -1.5625 C 6.601562 -1.632812 6.804688 -1.71875 6.953125 -1.8125 L 6.953125 -3.578125 L 5.453125 -3.703125 L 5.453125 -5.171875 L 9.046875 -5.171875 Z M 9.046875 -1.15625 "/></g></g></g><g fill="#242424" fill-opacity="1"><g transform="translate(129.606672, 266.070993)"><g><path d="M 0.296875 -1.25 L 1.03125 -1.359375 L 4.21875 -10.4375 L 6.359375 -10.4375 L 9.5 -1.359375 L 10.25 -1.25 L 10.25 0 L 6.703125 0 L 6.703125 -1.25 L 7.421875 -1.375 L 6.96875 -2.8125 L 3.578125 -2.8125 L 3.125 -1.375 L 3.84375 -1.25 L 3.84375 0 L 0.296875 0 Z M 4.078125 -4.359375 L 6.46875 -4.359375 L 5.296875 -8.03125 L 5.25 -8.03125 Z M 4.078125 -4.359375 "/></g></g></g><g fill="#242424" fill-opacity="1"><g transform="translate(143.081649, 266.070993)"><g><path d="M 11.0625 -10.4375 L 11.0625 -9.171875 L 9.9375 -8.953125 L 9.9375 0 L 7.859375 0 L 3.640625 -7.015625 L 3.609375 -7.015625 L 3.609375 -1.46875 L 4.71875 -1.25 L 4.71875 0 L 0.40625 0 L 0.40625 -1.25 L 1.515625 -1.46875 L 1.515625 -8.953125 L 0.40625 -9.171875 L 0.40625 -10.4375 L 3.609375 -10.4375 L 7.8125 -3.40625 L 7.859375 -3.421875 L 7.859375 -8.953125 L 6.734375 -9.171875 L 6.734375 -10.4375 Z M 11.0625 -10.4375 "/></g></g></g><g fill="#242424" fill-opacity="1"><g transform="translate(157.35183, 266.070993)"><g><path d="M 0.390625 -9.171875 L 0.390625 -10.4375 L 4.71875 -10.4375 L 4.71875 -9.171875 L 3.59375 -8.953125 L 3.59375 -1.46875 L 4.71875 -1.25 L 4.71875 0 L 0.390625 0 L 0.390625 -1.25 L 1.515625 -1.46875 L 1.515625 -8.953125 Z M 0.390625 -9.171875 "/></g></g></g><g fill="#242424" fill-opacity="1"><g transform="translate(165.396493, 266.070993)"><g><path d="M 8.953125 -6.90625 L 7.390625 -6.90625 L 7.171875 -8.296875 C 6.972656 -8.503906 6.71875 -8.664062 6.40625 -8.78125 C 6.09375 -8.90625 5.722656 -8.96875 5.296875 -8.96875 C 4.390625 -8.96875 3.691406 -8.632812 3.203125 -7.96875 C 2.710938 -7.3125 2.46875 -6.457031 2.46875 -5.40625 L 2.46875 -5.03125 C 2.46875 -3.976562 2.707031 -3.117188 3.1875 -2.453125 C 3.675781 -1.785156 4.367188 -1.453125 5.265625 -1.453125 C 5.671875 -1.453125 6.046875 -1.507812 6.390625 -1.625 C 6.734375 -1.75 6.992188 -1.914062 7.171875 -2.125 L 7.390625 -3.515625 L 8.953125 -3.515625 L 8.953125 -1.453125 C 8.523438 -0.960938 7.984375 -0.570312 7.328125 -0.28125 C 6.679688 0.0078125 5.957031 0.15625 5.15625 0.15625 C 3.75 0.15625 2.597656 -0.328125 1.703125 -1.296875 C 0.816406 -2.273438 0.375 -3.519531 0.375 -5.03125 L 0.375 -5.390625 C 0.375 -6.898438 0.816406 -8.140625 1.703125 -9.109375 C 2.585938 -10.085938 3.738281 -10.578125 5.15625 -10.578125 C 5.957031 -10.578125 6.679688 -10.429688 7.328125 -10.140625 C 7.984375 -9.847656 8.523438 -9.457031 8.953125 -8.96875 Z M 8.953125 -6.90625 "/></g></g></g><g fill="#242424" fill-opacity="1"><g transform="translate(177.839854, 266.070993)"><g/></g></g><g fill="#242424" fill-opacity="1"><g transform="translate(184.372914, 266.070993)"><g><path d="M 5.359375 -10.4375 C 6.554688 -10.4375 7.5 -10.128906 8.1875 -9.515625 C 8.882812 -8.898438 9.234375 -8.09375 9.234375 -7.09375 C 9.234375 -6.101562 8.882812 -5.300781 8.1875 -4.6875 C 7.5 -4.082031 6.554688 -3.78125 5.359375 -3.78125 L 3.609375 -3.78125 L 3.609375 -1.46875 L 4.71875 -1.25 L 4.71875 0 L 0.40625 0 L 0.40625 -1.25 L 1.515625 -1.46875 L 1.515625 -8.953125 L 0.40625 -9.171875 L 0.40625 -10.4375 Z M 3.609375 -5.390625 L 5.359375 -5.390625 C 5.941406 -5.390625 6.382812 -5.546875 6.6875 -5.859375 C 6.988281 -6.179688 7.140625 -6.585938 7.140625 -7.078125 C 7.140625 -7.585938 6.988281 -8.003906 6.6875 -8.328125 C 6.382812 -8.648438 5.941406 -8.8125 5.359375 -8.8125 L 3.609375 -8.8125 Z M 3.609375 -5.390625 "/></g></g></g><g fill="#242424" fill-opacity="1"><g transform="translate(196.801946, 266.070993)"><g><path d="M 5.09375 -10.4375 C 6.269531 -10.4375 7.195312 -10.160156 7.875 -9.609375 C 8.550781 -9.066406 8.890625 -8.320312 8.890625 -7.375 C 8.890625 -6.84375 8.742188 -6.382812 8.453125 -6 C 8.171875 -5.613281 7.757812 -5.300781 7.21875 -5.0625 C 7.832031 -4.882812 8.273438 -4.582031 8.546875 -4.15625 C 8.816406 -3.738281 8.953125 -3.21875 8.953125 -2.59375 L 8.953125 -2.0625 C 8.953125 -1.832031 9 -1.648438 9.09375 -1.515625 C 9.1875 -1.390625 9.335938 -1.316406 9.546875 -1.296875 L 9.796875 -1.265625 L 9.796875 0 L 8.71875 0 C 8.03125 0 7.546875 -0.179688 7.265625 -0.546875 C 6.992188 -0.921875 6.859375 -1.398438 6.859375 -1.984375 L 6.859375 -2.578125 C 6.859375 -3.078125 6.722656 -3.472656 6.453125 -3.765625 C 6.179688 -4.054688 5.800781 -4.207031 5.3125 -4.21875 L 3.609375 -4.21875 L 3.609375 -1.46875 L 4.71875 -1.25 L 4.71875 0 L 0.40625 0 L 0.40625 -1.25 L 1.515625 -1.46875 L 1.515625 -8.953125 L 0.40625 -9.171875 L 0.40625 -10.4375 Z M 3.609375 -5.828125 L 5.046875 -5.828125 C 5.628906 -5.828125 6.066406 -5.953125 6.359375 -6.203125 C 6.648438 -6.453125 6.796875 -6.8125 6.796875 -7.28125 C 6.796875 -7.75 6.648438 -8.117188 6.359375 -8.390625 C 6.078125 -8.671875 5.65625 -8.8125 5.09375 -8.8125 L 3.609375 -8.8125 Z M 3.609375 -5.828125 "/></g></g></g><g fill="#242424" fill-opacity="1"><g transform="translate(209.825585, 266.070993)"><g><path d="M 9.9375 -5.140625 C 9.9375 -3.609375 9.5 -2.34375 8.625 -1.34375 C 7.75 -0.34375 6.601562 0.15625 5.1875 0.15625 C 3.78125 0.15625 2.644531 -0.34375 1.78125 -1.34375 C 0.914062 -2.34375 0.484375 -3.609375 0.484375 -5.140625 L 0.484375 -5.296875 C 0.484375 -6.816406 0.914062 -8.078125 1.78125 -9.078125 C 2.644531 -10.078125 3.78125 -10.578125 5.1875 -10.578125 C 6.601562 -10.578125 7.75 -10.078125 8.625 -9.078125 C 9.5 -8.078125 9.9375 -6.816406 9.9375 -5.296875 Z M 7.859375 -5.3125 C 7.859375 -6.382812 7.628906 -7.257812 7.171875 -7.9375 C 6.722656 -8.613281 6.0625 -8.953125 5.1875 -8.953125 C 4.3125 -8.953125 3.65625 -8.613281 3.21875 -7.9375 C 2.789062 -7.269531 2.578125 -6.394531 2.578125 -5.3125 L 2.578125 -5.140625 C 2.578125 -4.035156 2.796875 -3.144531 3.234375 -2.46875 C 3.671875 -1.800781 4.320312 -1.46875 5.1875 -1.46875 C 6.070312 -1.46875 6.738281 -1.800781 7.1875 -2.46875 C 7.632812 -3.144531 7.859375 -4.035156 7.859375 -5.140625 Z M 7.859375 -5.3125 "/></g></g></g><g fill="#242424" fill-opacity="1"><g transform="translate(223.135784, 266.070993)"><g><path d="M 5.09375 -10.4375 C 6.363281 -10.4375 7.410156 -10.023438 8.234375 -9.203125 C 9.066406 -8.390625 9.484375 -7.347656 9.484375 -6.078125 L 9.484375 -4.34375 C 9.484375 -3.0625 9.066406 -2.015625 8.234375 -1.203125 C 7.410156 -0.398438 6.363281 0 5.09375 0 L 0.40625 0 L 0.40625 -1.25 L 1.515625 -1.46875 L 1.515625 -8.953125 L 0.40625 -9.171875 L 0.40625 -10.4375 Z M 3.609375 -8.8125 L 3.609375 -1.609375 L 4.984375 -1.609375 C 5.734375 -1.609375 6.320312 -1.859375 6.75 -2.359375 C 7.175781 -2.867188 7.390625 -3.53125 7.390625 -4.34375 L 7.390625 -6.09375 C 7.390625 -6.894531 7.175781 -7.546875 6.75 -8.046875 C 6.320312 -8.554688 5.734375 -8.8125 4.984375 -8.8125 Z M 3.609375 -8.8125 "/></g></g></g><g fill="#242424" fill-opacity="1"><g transform="translate(236.180915, 266.070993)"><g><path d="M 4.59375 -10.4375 L 4.59375 -9.171875 L 3.484375 -8.953125 L 3.484375 -3.515625 C 3.484375 -2.828125 3.664062 -2.3125 4.03125 -1.96875 C 4.40625 -1.625 4.914062 -1.453125 5.5625 -1.453125 C 6.21875 -1.453125 6.726562 -1.617188 7.09375 -1.953125 C 7.46875 -2.296875 7.65625 -2.816406 7.65625 -3.515625 L 7.65625 -8.953125 L 6.546875 -9.171875 L 6.546875 -10.4375 L 10.875 -10.4375 L 10.875 -9.171875 L 9.75 -8.953125 L 9.75 -3.515625 C 9.75 -2.335938 9.363281 -1.429688 8.59375 -0.796875 C 7.820312 -0.160156 6.8125 0.15625 5.5625 0.15625 C 4.3125 0.15625 3.300781 -0.160156 2.53125 -0.796875 C 1.769531 -1.429688 1.390625 -2.335938 1.390625 -3.515625 L 1.390625 -8.953125 L 0.28125 -9.171875 L 0.28125 -10.4375 Z M 4.59375 -10.4375 "/></g></g></g><g fill="#242424" fill-opacity="1"><g transform="translate(250.20035, 266.070993)"><g><path d="M 8.953125 -6.90625 L 7.390625 -6.90625 L 7.171875 -8.296875 C 6.972656 -8.503906 6.71875 -8.664062 6.40625 -8.78125 C 6.09375 -8.90625 5.722656 -8.96875 5.296875 -8.96875 C 4.390625 -8.96875 3.691406 -8.632812 3.203125 -7.96875 C 2.710938 -7.3125 2.46875 -6.457031 2.46875 -5.40625 L 2.46875 -5.03125 C 2.46875 -3.976562 2.707031 -3.117188 3.1875 -2.453125 C 3.675781 -1.785156 4.367188 -1.453125 5.265625 -1.453125 C 5.671875 -1.453125 6.046875 -1.507812 6.390625 -1.625 C 6.734375 -1.75 6.992188 -1.914062 7.171875 -2.125 L 7.390625 -3.515625 L 8.953125 -3.515625 L 8.953125 -1.453125 C 8.523438 -0.960938 7.984375 -0.570312 7.328125 -0.28125 C 6.679688 0.0078125 5.957031 0.15625 5.15625 0.15625 C 3.75 0.15625 2.597656 -0.328125 1.703125 -1.296875 C 0.816406 -2.273438 0.375 -3.519531 0.375 -5.03125 L 0.375 -5.390625 C 0.375 -6.898438 0.816406 -8.140625 1.703125 -9.109375 C 2.585938 -10.085938 3.738281 -10.578125 5.15625 -10.578125 C 5.957031 -10.578125 6.679688 -10.429688 7.328125 -10.140625 C 7.984375 -9.847656 8.523438 -9.457031 8.953125 -8.96875 Z M 8.953125 -6.90625 "/></g></g></g><g fill="#242424" fill-opacity="1"><g transform="translate(262.643704, 266.070993)"><g><path d="M 9.578125 -10.4375 L 9.578125 -7.65625 L 7.984375 -7.65625 L 7.890625 -8.8125 L 5.96875 -8.8125 L 5.96875 -1.46875 L 7.09375 -1.25 L 7.09375 0 L 2.765625 0 L 2.765625 -1.25 L 3.890625 -1.46875 L 3.890625 -8.8125 L 1.96875 -8.8125 L 1.890625 -7.65625 L 0.28125 -7.65625 L 0.28125 -10.4375 Z M 9.578125 -10.4375 "/></g></g></g><g fill="#242424" fill-opacity="1"><g transform="translate(275.445259, 266.070993)"><g><path d="M 8.328125 -7.09375 L 6.75 -7.09375 L 6.484375 -8.53125 C 6.304688 -8.644531 6.039062 -8.742188 5.6875 -8.828125 C 5.34375 -8.921875 4.972656 -8.96875 4.578125 -8.96875 C 4.003906 -8.96875 3.5625 -8.84375 3.25 -8.59375 C 2.9375 -8.351562 2.78125 -8.046875 2.78125 -7.671875 C 2.78125 -7.316406 2.941406 -7.023438 3.265625 -6.796875 C 3.597656 -6.566406 4.164062 -6.328125 4.96875 -6.078125 C 6.113281 -5.753906 6.984375 -5.328125 7.578125 -4.796875 C 8.171875 -4.273438 8.46875 -3.585938 8.46875 -2.734375 C 8.46875 -1.835938 8.113281 -1.128906 7.40625 -0.609375 C 6.707031 -0.0976562 5.78125 0.15625 4.625 0.15625 C 3.789062 0.15625 3.039062 0.0234375 2.375 -0.234375 C 1.707031 -0.503906 1.15625 -0.867188 0.71875 -1.328125 L 0.71875 -3.515625 L 2.328125 -3.515625 L 2.5625 -2.03125 C 2.769531 -1.851562 3.050781 -1.707031 3.40625 -1.59375 C 3.769531 -1.488281 4.175781 -1.4375 4.625 -1.4375 C 5.195312 -1.4375 5.628906 -1.550781 5.921875 -1.78125 C 6.222656 -2.019531 6.375 -2.332031 6.375 -2.71875 C 6.375 -3.125 6.234375 -3.445312 5.953125 -3.6875 C 5.671875 -3.9375 5.171875 -4.164062 4.453125 -4.375 C 3.210938 -4.738281 2.273438 -5.164062 1.640625 -5.65625 C 1.003906 -6.144531 0.6875 -6.816406 0.6875 -7.671875 C 0.6875 -8.515625 1.046875 -9.203125 1.765625 -9.734375 C 2.484375 -10.273438 3.382812 -10.554688 4.46875 -10.578125 C 5.269531 -10.578125 6 -10.453125 6.65625 -10.203125 C 7.320312 -9.960938 7.878906 -9.640625 8.328125 -9.234375 Z M 8.328125 -7.09375 "/></g></g></g></svg>